<svg width="25" height="24" viewBox="0 0 25 24" fill="none" xmlns="http://www.w3.org/2000/svg">
<g id="bi:play-btn" clip-path="url(#clip0_2269_118)">
<g id="Group">
<path id="Vector" d="M10.2573 7.63953C10.1451 7.55968 10.0132 7.51224 9.87585 7.5024C9.73853 7.49257 9.60116 7.52072 9.47878 7.58377C9.3564 7.64682 9.25373 7.74233 9.18203 7.85985C9.11032 7.97737 9.07235 8.11236 9.07227 8.25003V15.75C9.07235 15.8877 9.11032 16.0227 9.18203 16.1402C9.25373 16.2577 9.3564 16.3532 9.47878 16.4163C9.60116 16.4793 9.73853 16.5075 9.87585 16.4976C10.0132 16.4878 10.1451 16.4404 10.2573 16.3605L15.5073 12.6105C15.6045 12.5411 15.6837 12.4496 15.7384 12.3434C15.7931 12.2372 15.8216 12.1195 15.8216 12C15.8216 11.8806 15.7931 11.7629 15.7384 11.6567C15.6837 11.5505 15.6045 11.4589 15.5073 11.3895L10.2573 7.63953Z" fill="black" fill-opacity="0.4"/>
<path id="Vector_2" d="M0.0722656 6C0.0722656 5.20435 0.388336 4.44129 0.950945 3.87868C1.51355 3.31607 2.27662 3 3.07227 3H21.0723C21.8679 3 22.631 3.31607 23.1936 3.87868C23.7562 4.44129 24.0723 5.20435 24.0723 6V18C24.0723 18.7956 23.7562 19.5587 23.1936 20.1213C22.631 20.6839 21.8679 21 21.0723 21H3.07227C2.27662 21 1.51355 20.6839 0.950945 20.1213C0.388336 19.5587 0.0722656 18.7956 0.0722656 18V6ZM22.5723 6C22.5723 5.60218 22.4142 5.22064 22.1329 4.93934C21.8516 4.65804 21.4701 4.5 21.0723 4.5H3.07227C2.67444 4.5 2.29291 4.65804 2.01161 4.93934C1.7303 5.22064 1.57227 5.60218 1.57227 6V18C1.57227 18.3978 1.7303 18.7794 2.01161 19.0607C2.29291 19.342 2.67444 19.5 3.07227 19.5H21.0723C21.4701 19.5 21.8516 19.342 22.1329 19.0607C22.4142 18.7794 22.5723 18.3978 22.5723 18V6Z" fill="black" fill-opacity="0.4"/>
</g>
</g>
<defs>
<clipPath id="clip0_2269_118">
<rect width="24" height="24" fill="white" transform="translate(0.0722656)"/>
</clipPath>
</defs>
</svg>
