<svg width="83" height="87" viewBox="0 0 83 87" fill="none" xmlns="http://www.w3.org/2000/svg">
<g id="Layer_2" clip-path="url(#clip0_469_978)">
<path id="Vector" d="M81.6183 53.7675C81.3631 54.7145 81.6413 55.453 81.9757 56.1864C82.2888 56.9187 82.4579 57.7053 82.4735 58.5025C82.5297 59.7686 81.9043 60.3682 80.7632 60.7362C72.6405 63.3662 64.967 66.8274 58.8507 73.0884C56.3337 75.6618 54.6387 78.5775 54.9502 82.3526C55.0625 83.7191 54.455 84.4988 53.0229 84.6121C50.4178 84.8111 47.8495 85.3509 45.3826 86.2179C43.9506 86.7325 42.9907 86.2668 41.9288 85.101C37.9032 80.6902 33.8137 76.3386 28.1748 73.8939C26.2016 73.0421 24.4989 71.4312 22.2372 71.4157C17.7266 71.3849 13.193 71.0966 8.74359 72.1878C8.36316 72.2918 7.99889 72.4485 7.66124 72.6535C5.72628 73.7524 5.18766 73.5336 4.77412 71.3977C4.51885 70.0827 4.28911 68.7626 4.11808 67.4347C4.05171 66.8994 4.11808 66.1866 4.67712 66.0116C5.26935 65.8238 5.38677 66.5855 5.6446 66.9586C6.22661 67.795 6.27767 68.8295 6.52018 69.7894C6.79332 70.8676 7.20175 71.143 8.38621 70.9114C13.2691 69.9606 18.2489 69.6149 23.2149 69.882C24.7398 69.9985 26.2284 70.4082 27.6005 71.0889C33.0173 73.6134 37.8879 76.9176 41.8165 81.5034C42.4885 82.2962 43.0963 83.1421 43.634 84.0331C44.0961 84.7871 44.6398 85.0315 45.4796 84.769C47.0802 84.275 48.6909 83.8169 50.3017 83.3588C50.8582 83.2019 51.3228 82.9831 51.384 82.3166C52.0707 74.5347 57.6637 70.3993 63.2108 66.2818C67.7265 62.9364 73.0744 61.4336 78.3279 59.7609C79.058 59.5293 79.7932 59.4135 79.8314 58.4356C79.8723 57.3908 79.9642 56.2585 79.2443 55.4659C78.818 54.9975 78.0394 55.4659 77.4217 55.5971C71.5862 56.8401 66.5191 59.7403 61.457 62.7743C58.8897 64.3102 56.6103 66.2892 54.723 68.621C52.5047 71.3308 49.9545 73.7678 48.1702 76.8559C47.4044 78.1683 45.0916 78.2481 44.4049 76.9279C42.9703 74.1744 40.5886 72.4168 38.2529 70.6154C37.0353 69.6761 35.9861 68.5567 34.8093 67.5943C33.1092 66.1866 30.9368 65.9524 28.9381 65.2962C28.4275 65.1264 27.8608 65.0595 27.3911 64.8073C22.8473 62.3626 18.0074 62.6688 13.096 63.0522C10.6479 63.2452 8.18454 63.3096 5.7416 63.6261C4.03384 63.8448 3.61519 63.5 3.46458 61.8041C3.16506 58.4484 2.8681 55.0936 2.57369 51.7396C1.76958 42.6298 1.53218 33.4995 1.41986 24.3717C1.37136 19.2686 0.99356 14.1862 0.860819 9.09089C0.832739 8.06154 1.0344 7.06306 2.23673 7.3976C5.77734 8.38321 9.48642 8.18506 13.027 9.08317C19.904 10.8252 26.6004 13.225 33.025 16.2501C34.1226 16.7647 34.891 17.6911 35.764 18.4915C37.3646 19.9634 39.0315 21.3634 40.6142 22.8456C41.5382 23.7077 41.985 23.3603 42.4725 22.3927C44.0782 19.158 45.5537 15.8383 47.9813 13.0951C50.3298 10.4419 52.663 7.75273 55.3841 5.49844C58.016 3.32393 61.3371 2.46185 64.4769 1.31154C65.9549 0.77113 67.4253 0.158664 69.0182 0.063449C70.1516 0.00168775 70.7412 0.300201 70.9327 1.67182C71.6628 6.9138 72.5179 12.1275 74.3916 17.1379C75.8543 21.0468 76.1121 25.2904 77.1996 29.3048C79.2239 36.85 79.1805 44.7632 81.409 52.2595C81.5195 52.7555 81.5895 53.2599 81.6183 53.7675ZM16.7591 23.893C16.9608 23.6357 17.0144 23.5173 17.0807 23.4941C17.3618 23.4051 17.6495 23.3388 17.941 23.296C24.0037 22.4854 29.5635 24.0088 34.7889 27.0042C36.2133 27.82 37.4003 28.9471 38.6179 30.0408C38.9575 30.3496 39.4067 30.8592 39.7641 30.0408C40.4431 28.4968 39.7641 25.1746 38.6026 23.9445C34.7149 19.8116 30.4722 16.3916 24.9661 14.3843C18.4081 11.9962 11.9038 9.73166 4.8941 9.23757C3.7607 9.1578 3.38545 9.42543 3.51308 10.5937C3.96236 14.6932 3.99044 18.8286 4.13595 22.946C4.43461 31.3095 4.66946 39.6936 5.28977 48.052C5.59865 52.2054 5.96113 56.3563 6.28022 60.5097C6.3568 61.4902 6.79076 61.9019 7.79653 61.8222C10.0557 61.642 12.3174 61.5082 14.5791 61.3924C17.627 61.238 20.6724 61.063 23.7152 61.588C25.982 61.9791 27.9502 63.3302 30.1455 63.7368C35.0263 64.6426 38.4571 67.8542 42.1049 70.775C42.4725 71.0683 42.7304 71.7143 43.292 71.4749C43.9327 71.2047 43.5881 70.5202 43.6442 70.0107C43.6457 69.7624 43.6347 69.5141 43.611 69.267C43.5855 63.0908 42.2734 57.0434 41.7961 50.9239C41.5714 48.0648 40.9818 45.9572 38.1687 44.9124C37.7704 44.7632 37.4488 44.3978 37.0889 44.1404C33.4844 41.5233 29.7652 39.1172 25.497 37.725C24.5755 37.4213 23.608 37.2592 22.3521 36.9529C25.3362 36.4614 28.9891 37.272 32.226 38.9036C35.0722 40.3447 37.5484 42.2953 39.9479 44.3643C40.2364 44.6216 40.5606 44.9819 40.969 44.6834C41.2855 44.4569 41.1681 44.0504 41.1273 43.7081C40.849 41.2917 40.4891 38.883 40.3181 36.4589C40.1853 34.5751 39.4757 33.1907 37.8777 32.1536C36.8566 31.4896 36.032 30.5092 35.0493 29.7681C30.8679 26.6182 26.319 24.4025 20.9583 24.3639C19.544 24.3965 18.1317 24.2381 16.7591 23.893ZM65.5158 35.5118C65.4699 35.6971 65.4776 35.8232 65.4214 35.8721C65.1942 36.06 64.9491 36.2272 64.7092 36.3868C58.3759 40.8825 53.0893 46.4796 48.1166 52.419C46.8848 53.8695 46.2581 55.7445 46.368 57.6507C46.5135 61.6189 46.5952 65.5896 46.6845 69.5603C46.7126 70.9011 46.6845 72.2418 46.6845 73.5825C46.6845 73.8708 46.5952 74.2465 46.9117 74.3854C47.3303 74.5707 47.5295 74.1564 47.7184 73.8991C48.4842 72.8697 49.2704 71.8403 49.9647 70.7595C51.8027 67.8979 53.9291 65.2216 56.6605 63.271C62.1258 59.3774 67.7418 55.6923 74.4963 54.3182C75.2187 54.1715 75.913 53.891 76.6329 53.7289C77.5212 53.5281 77.8786 53.0057 77.7255 52.1153C77.4702 50.7051 77.2455 49.2846 76.9596 47.8821C75.6067 41.0163 75.1881 34.009 73.6258 27.1612C72.4439 21.9372 71.6449 16.6335 69.784 11.5819C69.4368 10.6401 69.23 9.62101 69.4623 8.65084C69.9729 6.4892 69.327 4.42791 69.1024 2.32546C69.0182 1.53285 68.6455 1.2961 67.895 1.62292C66.1413 2.39494 64.3748 3.13093 62.6185 3.8978C61.1252 4.54886 59.494 5.08927 58.3529 6.23443C53.6636 10.936 48.5122 15.2747 45.7528 21.5924C45.2422 22.7684 44.3309 23.893 44.5249 25.1951C44.9844 28.3089 44.7955 31.4433 45.0661 34.5571C45.096 35.3042 45.2694 36.0383 45.5766 36.7188C45.9749 37.5268 46.4267 37.6092 47.0113 36.9041C47.8613 35.8747 48.7981 34.9148 49.564 33.816C52.8442 29.1118 56.9668 25.3418 61.8017 22.3181C63.1112 21.4972 64.3544 20.5167 65.937 20.2028C65.7233 20.4538 65.4738 20.6715 65.1968 20.8487C61.9599 23.3577 58.5827 25.7098 56.0453 29.0166C53.6049 32.1973 51.0803 35.3188 48.7471 38.5793C46.4139 41.8398 45.4286 45.633 45.6226 49.6861C45.643 50.1158 45.5894 50.6948 46.0591 50.8698C46.5288 51.0448 46.6845 50.4967 46.9398 50.2162C50.0492 46.7542 53.3745 43.4957 56.8953 40.4605C58.8814 38.7569 60.9669 37.1562 63.3103 35.957C63.9766 35.6302 64.6786 35.2571 65.5082 35.5118H65.5158Z" fill="#FC4525"/>
<path id="Vector_2" d="M39.0069 57.8773C37.871 57.6406 37.1409 56.7862 36.2347 56.2741C33.4395 54.6915 30.6187 53.2761 27.2542 53.572C26.9326 53.6004 26.4552 53.657 26.4119 53.2092C26.3685 52.7614 26.8637 52.7228 27.1777 52.6945C31.8644 52.3806 35.8569 53.8217 38.9839 57.4527C39.0299 57.5145 38.9967 57.6431 39.0069 57.8773Z" fill="#FC4525"/>
</g>
<defs>
<clipPath id="clip0_469_978">
<rect width="81.6152" height="86.3603" fill="white" transform="translate(0.861328 0.0634766)"/>
</clipPath>
</defs>
</svg>
