<svg width="75" height="68" viewBox="0 0 75 68" fill="none" xmlns="http://www.w3.org/2000/svg">
<g id="OBJECTS" clip-path="url(#clip0_469_973)">
<path id="Vector" d="M45.3419 4.08186C45.504 0.659051 41.633 -0.446927 39.4974 1.87944C29.3267 12.9921 19.9534 24.809 11.4475 37.2421C7.6528 42.772 -2.32961 55.0045 1.58899 62.3555C1.69462 62.5792 1.86341 62.7672 2.07454 62.8962C2.28567 63.0252 2.52994 63.0896 2.77723 63.0815C3.02452 63.0734 3.26403 62.9931 3.46627 62.8505C3.6685 62.708 3.82461 62.5094 3.91536 62.2792C7.62218 53.9958 12.121 46.09 17.3492 38.6723C18.9319 39.2825 20.5241 39.8736 22.1163 40.3885C25.215 41.3419 28.7141 43.0199 32.0701 43.3822C30.3349 50.676 28.6092 58.3987 29.7056 65.4923C30.2491 68.9627 34.9209 68.3526 35.512 65.2634C39.2781 45.3368 44.6077 24.3422 45.3419 4.08186ZM24.5285 35.9932C23.5083 35.7739 21.8303 35.2018 20.1046 34.8109C25.6922 27.2533 31.6688 19.9911 38.01 13.0536C37.0566 20.7764 35.4262 28.4229 33.8244 36.0599C33.6814 36.7178 33.5194 37.3947 33.3668 38.0716C30.7544 36.775 27.0265 36.5461 24.5285 35.9932Z" fill="#31BBA1"/>
<path id="Vector_2" d="M74.298 40.4266C72.496 38.6341 70.2936 37.8428 67.9195 37.0896C69.2189 34.393 70.1796 31.5461 70.7798 28.6136C71.1898 25.8582 67.1568 24.3422 65.6503 26.7067C64.1019 29.3716 62.9944 32.2693 62.3706 35.2876L54.2759 32.4273C50.9199 31.2641 49.0511 36.241 52.3691 37.5854L60.9499 41.0749C60.2444 44.288 59.7772 47.6917 60.6448 50.819C61.0453 52.2586 63.3335 52.8784 63.8484 51.1241C64.6206 48.5021 65.1355 45.823 65.822 43.182C67.9412 44.2374 70.2812 44.7734 72.6485 44.7456C73.1111 44.6714 73.546 44.4768 73.9096 44.1813C74.2732 43.8858 74.5526 43.4998 74.7197 43.0621C74.8869 42.6244 74.9359 42.1505 74.8618 41.6879C74.7878 41.2252 74.5933 40.7902 74.298 40.4266Z" fill="#31BBA1"/>
</g>
<defs>
<clipPath id="clip0_469_973">
<rect width="74.215" height="67.1691" fill="white" transform="translate(0.693359 0.659058)"/>
</clipPath>
</defs>
</svg>
