<svg width="82" height="87" viewBox="0 0 82 87" fill="none" xmlns="http://www.w3.org/2000/svg">
<g id="OBJECTS" clip-path="url(#clip0_469_963)">
<path id="Vector" d="M28.2792 48.1533C28.091 47.9435 27.842 47.7975 27.567 47.7355C27.4917 42.1137 26.9773 36.5065 26.0286 30.9648C29.0674 30.6135 32.9325 28.7997 30.359 25.4189C27.3296 21.4305 20.1028 22.7694 16.1143 24.0325C14.1676 24.6497 7.28269 27.2043 9.60931 30.452C11.5086 33.092 13.8352 30.5185 13.9017 35.1148C13.9777 40.8126 13.9017 46.4345 14.0251 52.0943C10.8343 62.9582 1.07204 71.2106 0.388302 82.8817C0.337904 83.1848 0.387559 83.4961 0.529761 83.7685C0.671964 84.0409 0.898983 84.2597 1.1765 84.3916C7.91895 86.6992 15.706 86.4618 22.7428 86.3764C29.5423 86.3004 39.2001 86.4998 44.9264 82.1315C54.3184 74.9712 32.6001 53.101 28.2792 48.1533ZM41.2228 80.9824C37.1394 82.8817 32.0493 83.0336 27.643 83.366C22.1646 83.7696 16.664 83.7696 11.1857 83.366C9.3624 83.233 7.55809 83.0051 5.76327 82.7297C2.10715 82.16 3.32269 80.1657 4.43377 76.9654C5.72528 73.1669 8.34629 69.5867 10.7014 65.8831C9.35291 69.3303 19.3051 69.9286 20.7866 69.9286C25.5348 69.9286 32.7615 68.4282 34.5659 63.1766C35.9998 59.0077 30.3779 58.4854 27.681 58.6184C24.7371 58.7608 15.9719 59.7769 15.2597 63.4805C15.201 63.7926 15.2679 64.1153 15.4457 64.3784C15.6235 64.6415 15.8979 64.8239 16.2093 64.886C18.479 65.1044 21.6128 62.9867 23.9299 62.5404C25.0884 62.303 31.3656 62.0751 31.3561 62.1035C30.1595 65.7312 24.5092 66.6903 21.3943 67.0322C19.2891 67.2587 17.1636 67.214 15.0697 66.8992C13.6833 66.6333 12.5722 65.5887 11.2332 65.3798C11.1494 65.3558 11.0606 65.3558 10.9768 65.3798C13.2369 61.7902 15.2027 58.134 15.3926 54.193C15.5239 54.1416 15.6385 54.055 15.724 53.9428C15.8094 53.8306 15.8623 53.697 15.8769 53.5568C16.8266 45.9597 16.4847 38.3625 16.3613 30.7654C16.336 30.4883 16.2198 30.2273 16.0309 30.0229C15.842 29.8186 15.5909 29.6823 15.3166 29.6353C9.23895 29.0181 15.763 26.9858 18.251 26.2071C20.5288 25.5345 22.933 25.4076 25.2689 25.8368C27.0162 25.7608 27.719 26.5395 27.4056 28.1634C26.4559 28.3913 25.4588 28.6477 24.4997 28.9231C24.3396 28.9804 24.1967 29.0773 24.0842 29.2047C23.9716 29.3321 23.8932 29.486 23.8563 29.6519C23.8193 29.8179 23.8249 29.9905 23.8727 30.1536C23.9204 30.3168 24.0087 30.4652 24.1293 30.585C24.0472 30.7434 24.0049 30.9194 24.0059 31.0978C24.0913 37.4699 23.626 44.5447 25.022 50.7838C25.2689 51.8854 26.9782 52.3412 27.4246 51.3536C31.8024 56.966 36.4746 62.303 40.3302 68.3712C42.4764 71.7709 46.5978 78.5323 41.2228 80.9824Z" fill="#CA4345"/>
<path id="Vector_2" d="M23.4555 26.0647C23.0445 25.9333 22.6097 25.8932 22.1816 25.9474C21.7535 26.0015 21.3423 26.1485 20.9769 26.3781C20.7211 26.4912 20.4578 26.5864 20.1887 26.6629H20.0558H19.9323C19.5402 26.5988 19.1386 26.6898 18.8124 26.9167C18.4863 27.1436 18.2612 27.4886 18.185 27.8785C18.1118 28.2745 18.1957 28.6835 18.4192 29.0186C18.6426 29.3538 18.9878 29.5886 19.3815 29.6733C20.0912 29.8317 20.8293 29.8088 21.5277 29.6068C22.5533 29.3694 23.7499 29.151 24.2152 28.0684C24.3791 27.7018 24.3911 27.2853 24.2488 26.9098C24.1064 26.5343 23.8212 26.2305 23.4555 26.0647Z" fill="#CA4345"/>
<path id="Vector_3" d="M14.7279 16.4258C14.5705 16.3716 14.4003 16.3674 14.2404 16.4138C14.0806 16.4602 13.9389 16.5548 13.835 16.6848C13.731 16.8147 13.6697 16.9737 13.6596 17.1398C13.6494 17.3059 13.6909 17.4711 13.7783 17.6128L13.8353 17.6888C13.2775 17.898 12.7697 18.2214 12.3443 18.6384C11.9945 19.0848 11.7405 19.5986 11.5984 20.1476C11.4562 20.6967 11.4289 21.2691 11.5181 21.8292C11.5471 22.1249 11.6904 22.3975 11.9174 22.5891C12.1445 22.7807 12.4374 22.876 12.7337 22.8548C14.4145 22.6839 16.7317 22.342 17.3109 20.4617C17.8143 18.7904 16.0764 17.0335 14.7279 16.4258ZM13.6833 20.4142C13.685 20.1268 13.7709 19.8462 13.9302 19.6071C14.1423 19.3068 14.3705 19.0183 14.614 18.7429C14.7184 18.8663 14.8324 18.9898 14.9273 19.1227C15.0991 19.3263 15.2021 19.5789 15.2217 19.8445C15.0676 19.9721 14.8902 20.0688 14.6994 20.1294C14.3705 20.2562 14.0303 20.3516 13.6833 20.4142Z" fill="#CA4345"/>
<path id="Vector_4" d="M27.7664 10.1677C24.8605 8.46788 21.6697 10.2247 20.5301 13.0167C20.387 13.1694 20.2538 13.3312 20.1313 13.501C19.7182 14.1168 19.4669 14.8268 19.4005 15.5653C19.3342 16.3039 19.4548 17.0472 19.7514 17.7269C21.6507 21.3925 27.2536 19.9775 29.5802 17.5939C31.9068 15.2103 30.2924 11.6492 27.7664 10.1677ZM27.6144 15.4572C26.7883 16.7298 23.3316 18.1067 22.23 16.6443C21.1284 15.1818 23.3126 12.9122 24.5851 12.4374C24.6808 12.3997 24.7652 12.3379 24.8301 12.258C24.8949 12.1782 24.9381 12.083 24.9555 11.9816C25.4485 11.9783 25.9335 12.1061 26.3609 12.3519C27.4625 12.9502 28.2222 14.5266 27.6144 15.4572Z" fill="#CA4345"/>
<path id="Vector_5" d="M18.5361 0.671214C18.398 0.560548 18.2336 0.487518 18.0588 0.459229C17.8841 0.430939 17.705 0.448352 17.539 0.509775C17.189 0.63311 16.87 0.831231 16.6044 1.09035C16.3387 1.34947 16.1326 1.66337 16.0006 2.01021C15.8392 2.54201 15.7347 3.0738 15.5828 3.6151C15.5411 3.74615 15.5377 3.88639 15.573 4.0193C15.6083 4.15221 15.6809 4.27226 15.7822 4.36532C15.6249 4.73799 15.5439 5.13838 15.5439 5.54287C15.5439 5.94736 15.6249 6.34775 15.7822 6.72042C16.092 7.31592 16.6162 7.77164 17.249 7.9955C17.8819 8.21937 18.5761 8.19469 19.1914 7.92647C19.8235 7.71831 20.3817 7.33113 20.798 6.81193C21.2144 6.29274 21.4711 5.66384 21.537 5.00157C21.6605 2.91236 20.1125 1.74431 18.5361 0.671214ZM18.8305 4.46978C18.835 4.533 18.835 4.59647 18.8305 4.6597C18.8356 4.70387 18.8356 4.74848 18.8305 4.79265V4.81165C18.8015 4.88707 18.7665 4.9601 18.7261 5.03006L18.5646 5.22949L18.2607 5.41942L18.0613 5.49539V5.43841C18.0613 5.31496 18.0613 5.18201 18.1278 5.05855C18.2341 4.58448 18.3901 4.12294 18.5931 3.68157C18.6961 3.89719 18.7757 4.12323 18.8305 4.35582V4.42229V4.46978Z" fill="#CA4345"/>
<path id="Vector_6" d="M76.3029 15.3907C78.8385 12.5418 81.2031 9.1326 79.8356 5.6949C77.8888 0.804251 69.7124 2.99792 66.3602 4.53634C66.1617 4.63465 66.0038 4.79925 65.9139 5.00166C62.3907 0.899215 58.0698 -2.04467 54.6511 1.96281C54.4928 2.1199 54.3854 2.321 54.3429 2.53994C54.3005 2.75889 54.3249 2.98555 54.413 3.19044C54.5011 3.39534 54.6488 3.56897 54.8369 3.68876C55.0251 3.80854 55.2449 3.86894 55.4678 3.86209C52.6189 4.33691 51.3464 7.26181 51.2514 11.1933C45.81 11.6586 40.5585 13.2825 37.4246 17.1571C37.0543 16.6063 35.9907 16.7582 36.0762 17.5274C36.5985 21.8198 39.5139 24.4693 43.2269 26.1502C40.6439 30.7084 40.53 34.6969 45.1927 36.5202C49.6275 38.2676 54.6891 34.6209 58.0983 32.2848L58.5257 31.9809C61.8779 36.1689 66.1228 38.6284 70.7475 37.2325C74.831 35.9504 76.037 32.4843 75.8851 28.5243C76.9575 28.2231 77.9554 27.7019 78.8154 26.994C79.6754 26.2861 80.3786 25.4069 80.8802 24.4123C82.7035 20.3194 80.0825 17.404 76.3029 15.3907ZM75.6097 5.81835C79.5507 6.61605 75.2868 11.972 73.473 14.0992C72.7798 13.8333 72.077 13.5864 71.3743 13.3585C70.2022 11.0793 68.8494 8.8976 67.3288 6.83447L68.2785 6.35015C70.6621 5.80886 73.0457 5.29605 75.6097 5.81835ZM60.7668 26.473H60.254H58.4592C56.7726 23.6378 55.4698 20.5914 54.5846 17.4135C55.1544 16.9102 55.6767 16.4638 56.1421 16.008C56.7593 15.4192 57.4146 14.8114 58.0413 14.1942H58.6111C62.6594 14.5434 66.6637 15.2877 70.5671 16.4163C70.6526 16.6348 70.7285 16.8627 70.814 17.0811C68.7818 19.2558 66.6546 21.345 64.4989 23.3867C64.119 23.7286 62.6946 24.9631 60.7668 26.473ZM54.974 26.2546C52.2968 26.098 49.6411 25.6813 47.0445 25.0106C48.6597 22.9583 50.4519 21.0517 52.4005 19.3127C53.0395 21.702 53.9012 24.0261 54.974 26.2546ZM61.2226 11.3263C62.6447 10.1115 64.1281 8.97043 65.6669 7.90756C66.8572 9.39125 67.9093 10.9806 68.8103 12.6558C67.1857 12.2505 65.5404 11.9335 63.8816 11.7061C63.0649 11.5257 62.1153 11.4592 61.2226 11.3263ZM56.8448 4.93519C57.4336 4.65979 57.1012 3.80511 56.5219 3.77663C56.2043 3.76838 55.8866 3.78745 55.5723 3.8336C55.7016 3.81268 55.8266 3.77099 55.9426 3.71015C58.6491 2.27619 61.6405 3.71015 64.4134 6.55907C62.0498 7.92486 59.7785 9.44438 57.614 11.1078C56.3225 11.0509 55.0025 11.0224 53.673 11.1078C53.8059 8.19245 54.7366 5.94181 56.8448 4.93519ZM38.5452 19.5027C38.7263 19.5136 38.9073 19.4804 39.0727 19.406C39.2381 19.3316 39.383 19.2181 39.4949 19.0753C42.2013 15.7231 46.8356 14.5835 51.4128 14.2322C51.4793 14.8399 51.6028 15.4762 51.7072 16.1314C49.0408 18.559 46.6347 21.2579 44.528 24.1844C42.0798 23.3121 39.9805 21.6693 38.5452 19.5027ZM44.319 31.7245C44.3325 30.085 44.7992 28.4811 45.6675 27.0903C49.2031 28.1428 52.8426 28.8083 56.5219 29.075L56.7593 29.4454C51.128 33.3769 44.509 36.8241 44.319 31.7245ZM69.2566 34.488C66.6451 35.2572 63.6822 33.3104 61.0422 30.1101L61.7829 29.5309C65.5278 29.8898 69.302 29.8037 73.0267 29.2745C72.6658 31.8765 71.5072 33.8327 69.2566 34.488ZM65.1446 26.6535C67.4903 24.5358 69.7314 22.3136 71.9061 20.006C72.5497 22.0325 72.9607 24.1257 73.1311 26.2451C70.4915 26.6691 67.8137 26.806 65.1446 26.6535ZM77.6039 24.0894C77.0457 24.7196 76.3505 25.2134 75.5717 25.5329C75.1059 23.0818 74.4161 20.6786 73.511 18.3536L74.1757 17.6604C77.7084 19.2273 79.8261 21.345 77.6039 24.0989V24.0894Z" fill="#FCAE45"/>
<path id="Vector_7" d="M61.3644 19.873L61.2884 19.7591C61.2019 19.2874 60.9877 18.8485 60.6691 18.4902C60.3504 18.1318 59.9396 17.8678 59.4812 17.7267C59.0229 17.5857 58.5347 17.5731 58.0697 17.6904C57.6047 17.8076 57.1808 18.0501 56.8441 18.3916C56.5234 18.7268 56.2926 19.1376 56.1731 19.5858C56.0535 20.0341 56.0492 20.5052 56.1604 20.9556C56.334 21.8146 56.7763 22.5962 57.4234 23.1873C57.9148 23.667 58.5743 23.9355 59.261 23.9355C59.9477 23.9355 60.6071 23.667 61.0985 23.1873C61.5259 22.7546 61.787 22.1849 61.8356 21.5786C61.8843 20.9723 61.7174 20.3683 61.3644 19.873Z" fill="#FCAE45"/>
</g>
<defs>
<clipPath id="clip0_469_963">
<rect width="81.0898" height="86.3603" fill="white" transform="translate(0.388672 0.0634766)"/>
</clipPath>
</defs>
</svg>
