<svg width="16" height="87" viewBox="0 0 16 87" fill="none" xmlns="http://www.w3.org/2000/svg">
<path id="Vector" d="M59.7006 0.158156C63.5922 -0.205741 67.8343 0.545316 72.0582 1.27809C74.6204 1.72341 76.9882 2.93972 79.3212 4.00649C82.7209 5.5651 85.9477 7.54078 88.6429 10.1994C89.728 11.2678 90.4707 12.6785 91.5408 13.7669C92.3567 14.5977 93.2822 15.3288 94.0681 16.2045C95.7746 18.1054 96.986 20.3254 98.2222 22.5337C100.641 26.8464 102.343 31.5233 103.262 36.3817C103.706 38.6747 103.621 41.0426 103.277 43.3722C103.2 43.8823 103.137 44.2611 103.747 44.5353C105.575 45.3661 106.155 46.9164 106.052 48.7957C105.969 50.3311 105.847 51.8631 105.71 53.3935C105.651 54.0349 105.781 54.314 106.519 54.2442C107.441 54.1578 108.378 54.2442 109.307 54.211C110.032 54.1723 110.757 54.282 111.438 54.5335C112.119 54.7849 112.741 55.1728 113.267 55.6732C114.227 56.5688 115.374 57.4096 115.709 58.6991C116.09 60.1646 116.174 61.7216 115.754 63.2386C114.948 66.1465 113.616 68.6423 110.741 70.0513C109.43 70.6944 108.062 70.603 106.693 70.6512C105.66 70.6877 105.595 70.7774 106.05 71.6913C106.437 72.469 106.801 73.2549 106.924 74.124C107.413 77.5519 104.817 80.4465 101.077 80.6043C99.4153 80.6741 97.7304 80.7373 96.2299 79.7735C95.8527 79.5292 95.5919 79.6622 95.4174 80.0892C94.5866 82.1247 92.9665 82.9439 90.8562 82.9771C90.6638 82.9738 90.4713 82.9805 90.2796 82.9971C87.5462 83.3161 85.9195 81.8672 84.9275 79.5409C84.5835 78.7366 84.2629 78.6569 83.6281 79.1703C81.5793 80.832 79.2181 81.1061 76.7157 80.6758C74.1186 80.2288 72.118 77.8277 72.1114 75.1924C72.1114 73.2317 72.4553 71.3706 73.4971 69.6708C73.7348 69.287 74.0521 68.8151 73.2346 68.717C71.2506 68.4794 70.124 67.2431 69.6654 65.432C69.2871 63.9628 69.3146 62.4185 69.7452 60.9639C69.9114 60.3736 70.1954 59.8232 70.58 59.3457C70.9647 58.8682 71.4421 58.4736 71.9834 58.1856C72.663 57.8217 72.8923 57.398 72.5583 56.632C72.1562 55.7131 72.123 54.6912 72.0482 53.7058C71.8434 51.0211 71.2495 48.3803 70.2852 45.8663C69.6787 44.2645 69.5225 42.4982 69.0955 40.8216C68.6186 38.9522 67.9324 37.176 66.7277 35.6124C66.063 34.7633 65.5911 33.7696 65.0777 32.8142C63.662 30.1805 60.4002 28.5554 57.3893 29.0689C55.5615 29.3796 53.7819 29.9628 51.9907 30.4547C50.5484 30.8501 49.5663 31.8853 48.7372 33.0402C46.4973 36.1657 44.6795 39.5205 43.862 43.3074C43.2904 45.9244 43.4017 48.583 43.5512 51.2417C43.5554 51.3712 43.5852 51.4987 43.6388 51.6168C43.6924 51.7349 43.7688 51.8412 43.8636 51.9296C46.1384 53.975 46.3561 56.5705 45.8493 59.3537C45.3873 61.8578 44.7742 64.3021 43.0644 66.3193C42.5069 66.9815 41.8452 67.5483 41.1053 67.9975C40.6201 68.2933 40.5886 68.5891 40.9724 68.9812C43.3851 71.4438 43.3253 74.5045 42.8667 77.5569C42.4828 80.1092 40.1516 81.8937 37.5644 82.0333C36.6072 82.1047 35.6447 82.0556 34.6997 81.8871C34.2328 81.7957 34.0185 81.8871 33.8822 82.3856C33.201 84.893 31.3765 85.9465 28.9355 86.2356C26.1839 86.5679 23.8476 85.9298 22.2292 83.5005C21.8969 83.0021 21.5363 83.0021 21.1624 83.474C20.9863 83.7016 20.7869 83.9126 20.5975 84.1303C18.4224 86.6543 15.7156 86.8637 12.8277 85.87C11.6263 85.4563 11.2708 84.3962 11.0149 83.3344C10.651 81.8256 10.6975 80.2836 10.8952 78.7499C11.0199 77.7746 10.9218 77.7231 9.95641 77.9191C5.94855 78.7084 2.88119 77.3658 2.19327 74.0708C1.58511 71.153 2.25807 68.3913 4.52786 66.208C4.90837 65.8407 5.64448 65.5101 5.51155 65.0282C5.38692 64.5713 4.60263 64.8471 4.11578 64.7441C2.22484 64.3519 1.03844 63.1705 0.822426 61.3626C0.568196 59.2358 1.32922 57.8383 3.22016 57.0424C5.65278 56.0155 8.12363 55.1332 10.8337 55.3376C11.4868 55.3858 11.5532 55.1 11.4452 54.5068C11.1561 52.9415 10.7507 51.3497 11.7676 49.8542C12.6466 48.5614 13.8347 47.719 15.3667 47.5445C16.2606 47.4415 16.3238 47.0809 16.1676 46.3664C15.7655 44.517 15.4381 42.6544 15.2072 40.7767C14.8628 38.1707 14.9917 35.5239 15.5877 32.9637C16.2523 30.1556 16.3371 27.2527 16.9087 24.4246C17.7395 20.2921 19.7052 16.6748 21.8936 13.1455C22.8905 11.532 23.9689 9.93851 25.4694 8.787C28.4603 6.49229 31.8667 4.90876 35.3361 3.46979C40.1083 1.47583 45.1165 0.776282 50.2376 0.478851C53.2452 0.29441 56.2461 0.0800593 59.7006 0.158156ZM13.2365 79.7536C13.2581 81.2374 13.1152 82.4653 13.5173 83.6484C14.044 85.1937 16.3337 85.7869 17.6398 84.7933C19.2665 83.5587 20.7055 82.2527 20.7969 80.0045C20.8201 79.4129 21.322 79.2468 21.852 79.2567C22.3056 79.2567 22.5399 79.491 22.5781 79.9679C22.7443 82.128 24.0537 83.6019 25.6871 84.7999C27.5414 86.1625 31.7155 84.7135 31.8218 81.9901C31.8716 80.7123 32.071 79.4495 31.6407 78.185C31.4745 77.6865 31.1422 77.0102 31.9946 76.741C32.847 76.4718 33.4718 76.8158 33.7526 77.6931C33.9688 78.4326 34.2978 79.1343 34.728 79.7735C35.4558 80.807 36.409 81.1006 37.5877 80.6542C38.8738 80.164 39.8192 79.2301 40.0967 77.9291C40.8062 74.6058 40.886 70.5996 37.586 68.5608C37.4548 68.496 37.3487 68.3897 37.2841 68.2584C37.2195 68.1271 37.2001 67.9782 37.2287 67.8347C37.3085 67.4625 37.596 67.3146 37.9399 67.3063C38.6046 67.2897 39.221 67.1667 39.7145 66.6915C40.4573 65.977 41.1469 65.196 41.5423 64.2389C42.5825 61.675 43.297 59.0364 43.1857 56.2299C43.1176 54.4935 41.5689 52.3549 40.1067 52.0243C38.6445 51.6936 36.7585 52.4929 35.9991 53.9052C35.5488 54.7361 35.1899 55.1531 34.0982 54.9554C32.8454 54.7311 32.6476 54.7394 33.0896 53.5231C33.5432 52.2802 33.5682 51.0123 33.5 49.7362C33.3987 47.8719 31.8384 46.8649 30.1087 47.5528C28.0532 48.3704 26.5295 49.7545 25.8117 51.9096C25.6455 52.4081 25.4993 52.9282 24.8928 53.0346C23.851 53.219 22.8257 53.1907 22.0115 52.3932C20.8982 51.3081 19.5905 50.4839 18.2812 49.688C16.4201 48.5565 14.5492 49.1895 13.8928 51.1835C13.3827 52.7371 13.4143 54.3522 14.2251 55.851C14.7137 56.7483 14.614 56.966 13.617 57.0042C13.1584 57.0225 12.7313 56.9693 12.3541 56.6586C11.8872 56.2747 11.3206 56.1966 10.7291 56.1734C8.7617 56.0953 6.97378 56.7616 5.17091 57.4213C2.67847 58.3335 2.41261 59.9353 3.19523 62.5723C3.39463 63.237 3.92967 63.6175 4.591 63.7737C5.49991 63.9897 6.4188 64.1243 7.35429 63.9132C7.80792 63.8102 8.24493 63.8684 8.6836 63.9033C8.87801 63.9199 9.09568 63.9348 9.15218 64.1608C9.21698 64.425 9.0342 64.5679 8.81985 64.6743C8.43631 64.8325 8.06431 65.0174 7.70656 65.2276C4.97983 67.0637 3.5043 70.8489 4.33345 74.006C4.96985 76.4286 7.89266 78.1119 10.199 76.0648C11.0398 75.3187 11.9121 74.6208 12.615 73.7385C12.7832 73.5024 13.016 73.3199 13.2854 73.2129C13.5548 73.1059 13.8494 73.0789 14.1337 73.1353C15.0942 73.2799 15.2969 73.6537 14.6638 74.3765C13.7798 75.3735 13.4724 76.5499 13.3544 77.8144C13.288 78.5489 13.2631 79.2867 13.2365 79.7536ZM71.8422 63.3915C71.8422 65.2193 71.9186 65.7593 72.2941 66.4921C73.0219 67.9111 74.1219 68.2817 75.5675 67.6087C75.9108 67.4372 76.2711 67.3025 76.6426 67.2066C76.9832 67.1302 77.4236 67.0969 77.5997 67.4525C77.8191 67.8895 77.3638 68.0856 77.0829 68.2318C76.1674 68.7087 75.6456 69.4697 75.3067 70.4086C74.7002 72.0901 74.4044 73.8149 74.5722 75.5995C74.6262 76.2831 74.8492 76.9427 75.2212 77.5188C75.5932 78.0948 76.1027 78.5694 76.7036 78.8998C77.3046 79.2302 77.9782 79.406 78.6639 79.4115C79.3497 79.4169 80.0261 79.2518 80.6322 78.9311C81.432 78.5229 82.2017 78.0582 82.9352 77.5403C83.7178 76.977 84.2795 76.319 84.4307 75.2987C84.5736 74.3184 85.0073 74.1157 86.0059 74.2486C86.9514 74.3749 86.7752 75.0644 86.7021 75.641C86.4762 77.4389 87.0461 78.9959 88.068 80.4215C88.947 81.6462 89.8443 82.0134 91.0141 81.691C92.5095 81.2806 93.4052 80.3086 93.5497 78.8995C93.6461 77.9723 93.6909 77.0451 93.4799 76.1246C93.3902 75.7341 93.3553 75.3453 93.7757 75.1077C94.3639 74.7753 95.5287 75.1824 95.7979 75.8354C96.1649 76.7288 96.7164 77.5345 97.4163 78.1999C98.3585 79.1039 99.4834 79.5459 100.76 79.0557C101.784 78.6688 102.704 78.0494 103.448 77.2462C104.398 76.216 104.551 75.0279 104.149 73.7567C103.915 73.0928 103.63 72.4479 103.297 71.8276C102.987 71.1955 102.764 70.5249 102.632 69.8336C102.532 69.3351 102.669 68.8865 103.26 68.8649C103.925 68.84 104.59 68.7519 105.238 69.0759C106.446 69.6791 107.607 69.4382 108.682 68.712C110.58 67.4326 111.625 65.5267 112.406 63.4629C113.602 60.3058 113.278 59.033 110.809 56.735C110.669 56.6037 110.537 56.4625 110.395 56.3329C110.14 56.081 109.835 55.886 109.5 55.7605C109.164 55.6351 108.805 55.5821 108.448 55.6051C106.972 55.7164 105.703 56.1833 105.083 57.7104C104.829 58.3401 103.443 58.6725 102.699 58.272C101.881 57.8317 102.248 57.1787 102.532 56.6104C102.921 55.8361 103.322 55.085 103.49 54.2127C103.858 52.2885 104.021 50.341 104.196 48.3969C104.354 46.634 103.121 45.2398 101.624 45.406C100.763 45.4974 100.17 46.0707 99.6562 46.6821C98.657 47.862 97.9712 49.2747 97.6622 50.7897C97.5842 51.1785 97.5243 51.6305 97.0607 51.6637C96.4742 51.7052 95.7863 51.9395 95.311 51.4809C94.8724 51.0622 95.095 50.459 95.2396 49.9323C95.3018 49.6835 95.3824 49.4397 95.4805 49.2028C96.4775 46.9397 95.6783 44.7945 95.0219 42.656C94.8292 42.0296 94.3573 41.8701 93.6378 42.1226C91.7884 42.7673 90.8961 44.2628 90.1816 45.8995C89.6183 47.1889 89.168 48.5266 88.6861 49.8492C88.4551 50.4823 88.1145 50.9459 87.3568 50.8063C86.6556 50.6767 86.5958 50.1084 86.5675 49.5501C86.5459 49.1164 86.4496 48.7426 86.0923 48.4451C84.763 47.3418 83.2027 47.3368 81.89 48.4551C79.8047 50.233 79.0985 53.7972 80.2417 56.7898C80.6039 57.7386 80.4727 57.9114 79.4557 57.8981C79.1001 57.9189 78.7481 57.8169 78.4588 57.609C77.5964 56.9344 76.6576 57.0241 75.7237 57.3864C73.0252 58.4349 71.8455 60.2743 71.8405 63.3915H71.8422ZM18.346 39.7149C18.1366 42.1226 18.7115 44.5104 18.9708 46.9281C19.0605 47.7506 19.4227 48.2707 20.1505 48.6329C21.101 49.1065 21.9451 49.7512 22.7908 50.3876C23.0683 50.5953 23.4156 51.0074 23.6865 50.8229C24.1467 50.5089 24.6136 50.0503 24.8031 49.5485C24.9543 49.1513 25.0756 48.7642 25.3863 48.4983C26.0078 47.9649 26.0294 47.3501 25.8964 46.5908C25.378 43.6115 25.1371 40.5806 25.481 37.5914C25.8399 34.4741 25.9928 31.3254 26.601 28.243C27.1393 25.5163 27.6312 22.7597 28.9272 20.2439C29.5204 19.0808 30.4908 18.23 31.1804 17.2015C32.5114 15.1959 34.291 13.855 36.3448 12.76C37.4248 12.1817 38.5946 11.8361 39.7145 11.3625C42.2419 10.2958 44.7925 9.2938 47.4744 8.64742C51.7431 7.61721 56.1032 7.48428 60.455 7.26827C62.3144 7.17688 64.197 7.17688 66.0015 7.66374C69.491 8.60422 73.0917 9.26555 76.0777 11.527C76.3446 11.7061 76.6277 11.8597 76.9234 11.9856C79.6718 13.3415 82.3669 14.7622 83.9488 17.5853C84.0603 17.7427 84.1921 17.8847 84.341 18.0074C86.2319 19.8983 87.9616 21.9056 89.0068 24.4146C90.0304 26.8672 91.0373 29.3264 92.0991 31.764C92.8103 33.3991 93.3138 35.0873 93.3736 36.8636C93.4118 37.9719 93.6959 39.0104 93.9402 40.0705C94.0382 40.4992 94.2459 40.7634 94.673 40.8498C95.8577 41.0924 96.4459 41.9266 96.7716 43C96.9477 43.5815 97.0857 44.1764 97.2236 44.7696C97.3764 45.4259 97.6656 45.6685 98.2804 45.1933C99.0863 44.5719 99.9819 44.1648 101.027 44.1963C101.644 44.213 101.811 43.8341 101.771 43.3256C101.605 41.1539 101.472 38.9373 100.718 36.8985C99.2059 32.8208 97.7719 28.7016 95.8145 24.8018C94.4038 21.9936 93.0662 19.1406 90.8911 16.8044C89.5618 15.3737 88.1345 14.0162 86.9165 12.4958C85.8198 11.1249 84.6334 9.90694 83.1429 8.98806C82.2174 8.41646 81.2254 7.93126 80.373 7.26495C77.3339 4.88217 73.6484 3.86525 70.1024 2.84169C66.9254 1.92447 63.4875 1.72507 60.1077 1.69849C57.0902 1.67855 54.091 1.94607 51.0867 2.12885C49.0395 2.22444 47.0001 2.44642 44.9803 2.7935C40.2729 3.6725 35.8679 5.35906 31.6307 7.6438C28.5567 9.30543 26.1955 11.4955 24.4857 14.4748C22.5516 17.8495 20.7902 21.3107 20.1655 25.1973C19.6985 28.1035 19.5756 31.0628 18.891 33.9374C18.4208 35.8251 18.2371 37.7727 18.346 39.7149ZM27.3603 43.5882C27.3603 44.2944 27.3603 44.9989 27.3603 45.7051C27.352 46.8782 27.4451 46.9131 28.5517 46.5127C30.3795 45.848 32.2173 45.8796 33.9736 46.6921C34.7945 47.071 34.9207 46.8417 34.8709 46.0923C34.7513 44.3343 34.5502 42.5729 34.5602 40.8133C34.5751 38.4504 34.492 36.061 35.2531 33.763C35.6002 32.7295 35.8614 31.6691 36.034 30.5926C36.5757 27.1032 38.5032 24.5559 41.3812 22.6168C42.8035 21.6597 44.4253 21.1213 45.9025 20.3021C51.4988 17.2131 57.4907 16.9655 63.6453 17.5089C65.6061 17.6751 67.2112 18.692 68.9493 19.4048C70.6242 20.0662 72.1538 21.0483 73.4523 22.2961C74.5938 23.4127 75.8218 24.4313 76.96 25.5595C78.4538 27.01 79.68 28.7127 80.5823 30.5893C81.5793 32.7012 82.1493 34.9843 82.8305 37.2208C83.5633 39.6352 83.7527 42.1392 84.0169 44.6134C84.1665 46.0059 84.5337 46.7403 85.9494 47.071C86.6473 47.2371 86.9464 47.272 87.1125 46.5725C87.6193 44.4124 88.9403 42.8571 90.7848 41.7238C91.5009 41.2852 91.6322 40.7269 91.3281 40.0173C90.8887 39.0518 90.62 38.0173 90.5339 36.9599C90.4375 35.3216 89.8974 33.8344 89.168 32.3871C88.171 30.4164 87.1491 28.4574 86.2518 26.4418C85.1236 23.9078 83.5218 21.7394 81.5544 19.8136C80.9582 19.2294 80.4267 18.5826 79.9692 17.8844C79.1912 16.6595 78.1308 15.639 76.8769 14.9084C75.5127 14.1275 74.0671 13.4612 72.8042 12.5406C70.3965 10.7843 67.5485 10.2376 64.7935 9.42174C63.2907 8.94727 61.7145 8.74855 60.141 8.83519C58.1603 8.9731 56.168 9.01797 54.199 9.25226C52.1053 9.50316 49.9951 9.78896 47.9562 10.3107C45.1979 11.0186 42.5426 12.0837 39.9272 13.2252C35.2747 15.2574 32.1641 18.687 30.662 23.5273C29.665 26.7459 29.0868 30.0625 28.5384 33.3858C27.9801 36.7722 27.3088 40.1353 27.3603 43.5882ZM36.8316 45.0454C36.8316 46.5824 36.8316 48.1211 36.8316 49.6581C36.8316 50.1566 36.9546 50.6036 37.5877 50.5006C38.7126 50.3161 39.8259 50.4889 40.9425 50.5554C41.549 50.592 41.6869 50.4075 41.6271 49.7794C41.3978 47.4199 41.2349 45.0471 41.6636 42.6926C42.2934 39.2231 43.8238 36.1241 45.7944 33.2479C46.7914 31.7923 47.707 30.1639 49.5182 29.4992C50.7511 29.0456 52.0106 28.6684 53.2518 28.2397C56.3126 27.1613 59.4231 27.158 62.5321 27.9074C64.2402 28.3161 65.9733 28.788 67.0533 30.3998C67.6067 31.2306 68.16 32.0515 68.7532 32.8474C70.5461 35.2518 72.1911 37.721 72.5533 40.8083C72.7428 42.4284 72.7112 44.095 73.218 45.6536C74.1435 48.4784 74.6536 51.348 74.3479 54.3323C74.3125 54.7476 74.3153 55.1653 74.3562 55.5802C74.4144 56.3129 74.7168 56.7101 75.5443 56.4309C75.8817 56.3271 76.2358 56.2882 76.5878 56.3163C77.4718 56.3744 77.6313 56.0654 77.495 55.1797C76.9234 51.5025 77.1095 49.0317 80.9213 46.9895C81.4198 46.7187 81.4713 46.383 81.3434 45.8796C81.0274 44.7047 80.7772 43.5131 80.594 42.3104C80.039 38.354 79.1284 34.4874 77.1328 30.9781C76.1657 29.2799 75.0375 27.6365 73.5719 26.3471C71.0379 24.1172 68.6003 21.8192 65.4299 20.3154C62.9375 19.1356 60.4833 18.6072 57.8562 18.7119C52.9827 18.9047 48.5361 20.5613 44.4303 23.1302C42.2336 24.506 40.4157 26.3554 39.6398 28.8396C38.917 31.1525 38.2872 33.5187 37.7937 35.8982C37.1663 38.9072 36.844 41.9718 36.8316 45.0454Z" fill="#0A50A3"/>
</svg>
