<?xml version="1.0" ?><!-- Uploaded to: SVG Repo, www.svgrepo.com, Generator: SVG Repo Mixer Tools -->
<svg width="800px" height="800px" viewBox="0 0 2050 2050" data-name="Layer 2" id="Layer_2" xmlns="http://www.w3.org/2000/svg"><defs><style>.cls-1{fill:#4d4c78;}.cls-2{fill:#323150;}.cls-3{fill:#3f3e6b;}.cls-4{fill:#64639c;}.cls-5{fill:#f4c23f;}.cls-6{fill:#f4a93f;}.cls-7{fill:#de3226;}.cls-8{fill:#b11a31;}.cls-9{fill:#f8881b;}.cls-10{fill:#f08000;}.cls-11{fill:#fad564;}.cls-12{fill:#f44533;}</style></defs><title/><path class="cls-1" d="M978.4,193.8,170.6,511.4c-18.8,7.5-18.8,34.1,0,41.6l854.9,336.1a21.9,21.9,0,0,0,16.3,0L1896.7,553c18.9-7.5,18.9-34.1,0-41.6L1088.9,193.8A150.6,150.6,0,0,0,978.4,193.8Z"/><polygon class="cls-2" points="741 492.6 473.1 671.9 736.7 775.6 741 492.6"/><polygon class="cls-2" points="1326.3 492.6 1594.2 671.9 1330.7 775.6 1326.3 492.6"/><path class="cls-1" d="M1434.8,1108.8H632.5L706.8,530A44.3,44.3,0,0,1,741,492.6q319.8-71.2,586.9-.9a43.7,43.7,0,0,1,32.4,36.9Z"/><path class="cls-2" d="M833.3,620.9a44.2,44.2,0,0,1,34.2-37.4q267-59.4,497.3-20.3l-4.5-34.6a43.7,43.7,0,0,0-32.4-36.9q-267-70.3-586.9.9A44.3,44.3,0,0,0,706.8,530l-74.3,578.8H770.7Z"/><ellipse class="cls-2" cx="1033.7" cy="1108.8" rx="401.1" ry="49.3"/><path class="cls-2" d="M1631.4,1016.8a19.9,19.9,0,0,1-20-20V429a20,20,0,0,1,40,0V996.8A20,20,0,0,1,1631.4,1016.8Z"/><path class="cls-1" d="M1628.6,1213.3a69.4,69.4,0,0,1-69.3-69.3V1032.8a69.3,69.3,0,0,1,138.5,0V1144A69.4,69.4,0,0,1,1628.6,1213.3Z"/><path class="cls-2" d="M1594.2,1182V1070.8a69.2,69.2,0,0,1,99.1-62.5,69.2,69.2,0,0,0-134,24.5V1144a69.4,69.4,0,0,0,39.4,62.5A68.8,68.8,0,0,1,1594.2,1182Z"/><path class="cls-1" d="M1827.5,1285.4a67.5,67.5,0,0,0-54.3-27.3H240.8a67.6,67.6,0,0,0-54.3,27.3q-94.6,127.6,0,255.2a67.6,67.6,0,0,0,54.3,27.3H1773.2a67.5,67.5,0,0,0,54.3-27.3Q1922.3,1413,1827.5,1285.4Z"/><path class="cls-3" d="M1867.2,1457.2H334.8a67.5,67.5,0,0,1-54.3-27.3q-63.7-85.8-41.7-171.8a68.2,68.2,0,0,0-52.3,27.3q-94.6,127.6,0,255.2a67.6,67.6,0,0,0,54.3,27.3H1773.2a67.5,67.5,0,0,0,54.3-27.3q31.1-41.7,41.7-83.4Z"/><rect class="cls-2" height="309.82" width="124.9" x="433.6" y="1258.1"/><rect class="cls-2" height="309.82" width="124.9" x="1455.5" y="1258.1"/><rect class="cls-4" height="379.76" rx="60.3" ry="60.3" transform="translate(-104.3 198.6) rotate(-8.2)" width="120.7" x="1272.3" y="636.3"/><rect class="cls-4" height="379.76" rx="60.3" ry="60.3" transform="translate(536.5 1470) rotate(-70.1)" width="120.7" x="1256.6" y="162.3"/><rect class="cls-4" height="114.13" rx="28.4" ry="28.4" width="56.8" x="1639.5" y="1044"/><path class="cls-5" d="M1283.9,1533.8c0,27.9-40.4,49.1-48.6,74.2s11.5,66.9-4.3,88.6-61,15.4-82.9,31.4-29.4,60.7-55.5,69.2-57.7-23.4-85.6-23.4-60.4,31.6-85.5,23.4-33.8-53.4-55.5-69.2-67-9.5-82.9-31.4,4.1-62.5-4.3-88.6-48.6-46.3-48.6-74.2,40.4-49,48.6-74.1-11.5-66.9,4.3-88.6,61-15.5,82.9-31.4,29.4-60.8,55.5-69.2,57.7,23.4,85.5,23.4,60.5-31.6,85.6-23.4,33.8,53.4,55.5,69.2,67,9.5,82.9,31.4-4.2,62.5,4.3,88.6S1283.9,1506,1283.9,1533.8Z"/><path class="cls-6" d="M1000.6,1732.2A181.2,181.2,0,0,1,872.5,1423a182.8,182.8,0,0,1,57.6-38.8,181.1,181.1,0,0,1,237.3,237.4,181.1,181.1,0,0,1-166.8,110.6Z"/><path class="cls-6" d="M1115.4,1590.5a15.1,15.1,0,0,0-19.9-7.6l-111.2,50a18.1,18.1,0,0,0-4.2,2.8,18.1,18.1,0,0,0-4.2-2.8l-111.2-50a15.1,15.1,0,0,0-19.9,7.6l-51.6,114.9c20.1,11.6,54.5,9.3,72.8,22.6,21,15.3,28.9,57.8,53,68.3l61.1-135.9,54.2,120.5c20.3,8.8,41.1,21.9,58.3,16.3,26.1-8.5,33.8-53.4,55.5-69.2,6.6-4.8,15.3-7.6,24.7-9.7Z"/><path class="cls-7" d="M891.4,1859.1l-26.3-46.6a15,15,0,0,0-16.3-7.3l-52.3,11.2a15.1,15.1,0,0,1-16.9-20.9l92.2-205a15.1,15.1,0,0,1,19.9-7.6l111.2,50a15.2,15.2,0,0,1,7.5,19.9l-92.2,205A15,15,0,0,1,891.4,1859.1Z"/><path class="cls-8" d="M904,1628.1a31.1,31.1,0,0,0-15.2-41.3l-8.9-4.1a14.7,14.7,0,0,0-8.1,7.8l-92.2,205a15.1,15.1,0,0,0,16.9,20.9l22.6-4.9Z"/><path class="cls-7" d="M1122.7,1859.1l26.3-46.6a15,15,0,0,1,16.3-7.3l52.3,11.2a15.1,15.1,0,0,0,16.9-20.9l-92.2-205a15.1,15.1,0,0,0-19.9-7.6l-111.2,50a15.1,15.1,0,0,0-7.5,19.9l92.1,205A15.1,15.1,0,0,0,1122.7,1859.1Z"/><path class="cls-8" d="M1040.1,1643.8l-33.7,15,89.4,199a15.1,15.1,0,0,0,26.9,1.3l7.5-13.3Z"/><path class="cls-8" d="M1002.9,1632.9l-111.2-50a15.1,15.1,0,0,0-19.9,7.6l-25.2,55.9a181.7,181.7,0,0,0,128.9,84.1l34.9-77.7A15.2,15.2,0,0,0,1002.9,1632.9Z"/><path class="cls-8" d="M1161.8,1633.7l-19.5-43.2a15.1,15.1,0,0,0-19.9-7.6l-111.2,50a15.1,15.1,0,0,0-7.5,19.9l33.9,75.6a180.7,180.7,0,0,0,33.5-10.5,182.6,182.6,0,0,0,90.7-84.2Z"/><circle class="cls-9" cx="1007" cy="1529.4" r="169.5"/><circle class="cls-10" cx="1007" cy="1529.4" r="149.7"/><circle class="cls-5" cx="1007" cy="1529.4" r="132.9"/><path class="cls-11" d="M1125.4,1333.5h0a31.4,31.4,0,0,0,9.5-8.6c-13.1-19.8-22.2-47.9-42.3-54.4-6.9-2.3-14.3-1.5-22.1.8a30.3,30.3,0,0,0,.7,29.2l12.6,21.9A30.5,30.5,0,0,0,1125.4,1333.5Z"/><path class="cls-11" d="M1007.7,1303.9a30.6,30.6,0,0,0,4.3-10.3,41.9,41.9,0,0,1-5,.3c-24.4,0-52.5-24.4-76-24.8a30.4,30.4,0,0,0,13.4,29.7l21.2,13.9a30.5,30.5,0,0,0,42.1-8.8Z"/><path class="cls-11" d="M1235.3,1459.7c-8.5-26.1,11.5-66.9-4.3-88.6-9.9-13.7-31.3-16.3-51.2-20.2a48.4,48.4,0,0,0-6.7,29.9l3.9,40.8a49.3,49.3,0,0,0,53.8,44.4h0a49.3,49.3,0,0,0,6.7-1.1A38.5,38.5,0,0,1,1235.3,1459.7Z"/><rect class="cls-12" height="85.82" rx="22.5" ry="22.5" transform="translate(833.7 -224.2) rotate(24.8)" width="45" x="903.9" y="1739.5"/><rect class="cls-12" height="85.82" rx="22.5" ry="22.5" transform="translate(-600.1 629) rotate(-24)" width="45" x="1156" y="1682.4"/><rect class="cls-4" height="89.05" rx="44.5" ry="44.5" width="181.2" x="1594.2" y="1258.1"/><rect class="cls-4" height="89.05" rx="44.5" ry="44.5" width="181.2" x="1242.1" y="1258.1"/><rect class="cls-4" height="89.05" rx="44.5" ry="44.5" width="139.5" x="267.3" y="1258.1"/></svg>