<svg width="25" height="24" viewBox="0 0 25 24" fill="none" xmlns="http://www.w3.org/2000/svg">
<g id="healthicons:i-training-class">
<path id="Vector" fill-rule="evenodd" clip-rule="evenodd" d="M3.21387 3H18.7139V5.5H17.7139V4H4.21387V15.5H14.9074V16.5H3.21387V3ZM18.2139 9.5C18.6117 9.5 18.9932 9.34196 19.2745 9.06066C19.5558 8.77936 19.7139 8.39782 19.7139 8C19.7139 7.60218 19.5558 7.22064 19.2745 6.93934C18.9932 6.65804 18.6117 6.5 18.2139 6.5C17.816 6.5 17.4345 6.65804 17.1532 6.93934C16.8719 7.22064 16.7139 7.60218 16.7139 8C16.7139 8.39782 16.8719 8.77936 17.1532 9.06066C17.4345 9.34196 17.816 9.5 18.2139 9.5ZM19.2294 10.505C19.8789 10.505 20.3929 10.797 20.7294 11.248C21.0439 11.6705 21.1769 12.193 21.2069 12.6755C21.2363 13.1704 21.1688 13.6664 21.0084 14.1355C20.8584 14.5705 20.6049 15.0205 20.2139 15.329V20.25C20.2142 20.4384 20.1436 20.6201 20.0162 20.7589C19.8887 20.8976 19.7136 20.9833 19.5258 20.9989C19.338 21.0144 19.1513 20.9587 19.0027 20.8429C18.8541 20.727 18.7545 20.5594 18.7239 20.3735L18.0789 16.5H17.9299L17.2009 20.388C17.1663 20.5715 17.0644 20.7355 16.9153 20.8479C16.7662 20.9603 16.5805 21.013 16.3946 20.9958C16.2086 20.9785 16.0358 20.8925 15.9099 20.7546C15.784 20.6167 15.7141 20.4367 15.7139 20.25V13.1165C15.6139 13.2688 15.5152 13.422 15.4179 13.576L15.3789 13.6375L15.3689 13.6535L15.3664 13.658C15.299 13.7662 15.2051 13.8554 15.0937 13.9173C14.9822 13.9791 14.8568 14.0116 14.7294 14.0115H12.2294C12.0305 14.0115 11.8397 13.9325 11.699 13.7918C11.5584 13.6512 11.4794 13.4604 11.4794 13.2615C11.4794 13.0626 11.5584 12.8718 11.699 12.7312C11.8397 12.5905 12.0305 12.5115 12.2294 12.5115H14.3179C14.4394 12.3235 14.5994 12.0795 14.7674 11.8345C14.9424 11.579 15.1354 11.3085 15.3074 11.0965C15.3909 10.993 15.4844 10.885 15.5784 10.7965C15.6244 10.753 15.6884 10.6965 15.7664 10.6465C15.904 10.5561 16.0647 10.5072 16.2294 10.5055L19.2294 10.505Z" fill="#31BBA1"/>
</g>
</svg>
