<svg width="25" height="24" viewBox="0 0 25 24" fill="none" xmlns="http://www.w3.org/2000/svg">
<g id="ion:book-outline">
<path id="Vector" d="M12.6426 7.50001C13.3926 4.53938 16.2252 3.02766 22.3926 3.00001C22.4912 2.99963 22.5889 3.01878 22.68 3.05634C22.7712 3.0939 22.854 3.14913 22.9237 3.21885C22.9935 3.28856 23.0487 3.37139 23.0863 3.46255C23.1238 3.55372 23.143 3.65141 23.1426 3.75001V17.25C23.1426 17.4489 23.0636 17.6397 22.9229 17.7803C22.7823 17.921 22.5915 18 22.3926 18C16.3926 18 14.0746 19.2098 12.6426 21M12.6426 7.50001C11.8926 4.53938 9.05993 3.02766 2.89258 3.00001C2.79399 2.99963 2.69629 3.01878 2.60513 3.05634C2.51397 3.0939 2.43114 3.14913 2.36142 3.21885C2.29171 3.28856 2.23648 3.37139 2.19892 3.46255C2.16136 3.55372 2.14221 3.65141 2.14258 3.75001V17.1595C2.14258 17.6227 2.42946 18 2.89258 18C8.89258 18 11.219 19.2188 12.6426 21M12.6426 7.50001V21" stroke="black" stroke-opacity="0.4" stroke-width="1.5" stroke-linecap="round" stroke-linejoin="round"/>
</g>
</svg>
