<svg width="83" height="87" viewBox="0 0 83 87" fill="none" xmlns="http://www.w3.org/2000/svg">
<g id="Layer_2" clip-path="url(#clip0_133_113)">
<path id="Vector" d="M81.6188 53.7674C81.3636 54.7144 81.6418 55.453 81.9762 56.1864C82.2893 56.9186 82.4584 57.7052 82.474 58.5024C82.5301 59.7685 81.9047 60.3681 80.7637 60.7361C72.641 63.3661 64.9675 66.8273 58.8512 73.0884C56.3342 75.6618 54.6392 78.5774 54.9507 82.3526C55.063 83.719 54.4554 84.4988 53.0234 84.612C50.4183 84.811 47.85 85.3508 45.3831 86.2178C43.951 86.7325 42.9912 86.2667 41.9293 85.101C37.9037 80.6902 33.8142 76.3386 28.1753 73.8939C26.2021 73.0421 24.4994 71.4311 22.2377 71.4157C17.7271 71.3848 13.1934 71.0966 8.74407 72.1877C8.36364 72.2917 7.99938 72.4485 7.66173 72.6535C5.72677 73.7523 5.18815 73.5336 4.77461 71.3977C4.51934 70.0827 4.2896 68.7625 4.11856 67.4346C4.05219 66.8994 4.11856 66.1866 4.67761 66.0116C5.26984 65.8237 5.38726 66.5854 5.64509 66.9586C6.2271 67.7949 6.27816 68.8294 6.52066 69.7893C6.7938 70.8676 7.20224 71.1429 8.3867 70.9113C13.2695 69.9605 18.2493 69.6148 23.2154 69.8819C24.7402 69.9984 26.2289 70.4081 27.6009 71.0889C33.0178 73.6133 37.8884 76.9176 41.817 81.5034C42.489 82.2962 43.0968 83.1421 43.6345 84.033C44.0965 84.787 44.6403 85.0315 45.4801 84.769C47.0807 84.2749 48.6914 83.8168 50.3022 83.3588C50.8587 83.2018 51.3233 82.9831 51.3845 82.3166C52.0712 74.5346 57.6642 70.3992 63.2112 66.2818C67.727 62.9364 73.0749 61.4335 78.3284 59.7608C79.0585 59.5292 79.7936 59.4134 79.8319 58.4355C79.8728 57.3907 79.9647 56.2584 79.2448 55.4658C78.8185 54.9975 78.0399 55.4658 77.4222 55.5971C71.5867 56.84 66.5195 59.7402 61.4575 62.7743C58.8902 64.3101 56.6108 66.2892 54.7235 68.621C52.5052 71.3308 49.955 73.7678 48.1707 76.8558C47.4049 78.1683 45.0921 78.248 44.4054 76.9279C42.9708 74.1744 40.5891 72.4167 38.2534 70.6154C37.0358 69.6761 35.9866 68.5566 34.8098 67.5942C33.1097 66.1866 30.9373 65.9524 28.9386 65.2962C28.428 65.1263 27.8613 65.0594 27.3916 64.8072C22.8478 62.3625 18.0079 62.6687 13.0964 63.0522C10.6484 63.2452 8.18503 63.3095 5.74209 63.626C4.03433 63.8448 3.61568 63.4999 3.46507 61.8041C3.16555 58.4484 2.86859 55.0935 2.57418 51.7396C1.77007 42.6298 1.53267 33.4994 1.42035 24.3716C1.37185 19.2686 0.994048 14.1861 0.861307 9.09083C0.833228 8.06147 1.03489 7.063 2.23722 7.39754C5.77783 8.38315 9.48691 8.185 13.0275 9.08311C19.9045 10.8251 26.6009 13.225 33.0254 16.25C34.1231 16.7647 34.8915 17.6911 35.7645 18.4914C37.3651 19.9634 39.032 21.3633 40.6147 22.8456C41.5387 23.7077 41.9855 23.3603 42.473 22.3927C44.0787 19.1579 45.5541 15.8382 47.9818 13.095C50.3303 10.4419 52.6634 7.75267 55.3846 5.49838C58.0165 3.32387 61.3376 2.46178 64.4774 1.31148C65.9554 0.771069 67.4258 0.158603 69.0187 0.063388C70.1521 0.00162672 70.7417 0.30014 70.9332 1.67175C71.6633 6.91374 72.5184 12.1274 74.3921 17.1378C75.8548 21.0468 76.1126 25.2903 77.2001 29.3048C79.2244 36.85 79.181 44.7631 81.4095 52.2594C81.52 52.7555 81.59 53.2598 81.6188 53.7674ZM16.7596 23.8929C16.9612 23.6356 17.0149 23.5172 17.0812 23.4941C17.3623 23.405 17.65 23.3387 17.9415 23.2959C24.0042 22.4853 29.564 24.0088 34.7894 27.0042C36.2138 27.8199 37.4008 28.9471 38.6184 30.0408C38.9579 30.3496 39.4072 30.8591 39.7646 30.0408C40.4436 28.4967 39.7646 25.1745 38.6031 23.9444C34.7153 19.8116 30.4727 16.3915 24.9665 14.3843C18.4086 11.9962 11.9043 9.7316 4.89459 9.23751C3.76119 9.15774 3.38594 9.42537 3.51357 10.5937C3.96285 14.6931 3.99093 18.8285 4.13643 22.9459C4.4351 31.3095 4.66995 39.6935 5.29026 48.0519C5.59914 52.2053 5.96162 56.3562 6.28071 60.5097C6.35729 61.4901 6.79125 61.9019 7.79702 61.8221C10.0562 61.642 12.3179 61.5081 14.5796 61.3923C17.6275 61.2379 20.6729 61.0629 23.7157 61.5879C25.9825 61.9791 27.9507 63.3301 30.146 63.7367C35.0268 64.6425 38.4576 67.8541 42.1054 70.7749C42.473 71.0683 42.7309 71.7142 43.2924 71.4749C43.9332 71.2047 43.5886 70.5201 43.6447 70.0106C43.6462 69.7623 43.6352 69.5141 43.6115 69.2669C43.586 63.0908 42.2739 57.0433 41.7966 50.9238C41.5719 48.0648 40.9822 45.9572 38.1692 44.9124C37.7709 44.7631 37.4493 44.3977 37.0894 44.1404C33.4849 41.5232 29.7656 39.1171 25.4975 37.7249C24.576 37.4212 23.6085 37.2591 22.3526 36.9529C25.3367 36.4614 28.9896 37.272 32.2264 38.9035C35.0727 40.3446 37.5488 42.2952 39.9484 44.3642C40.2369 44.6216 40.561 44.9818 40.9695 44.6833C41.286 44.4569 41.1686 44.0503 41.1277 43.708C40.8495 41.2916 40.4896 38.8829 40.3185 36.4588C40.1858 34.5751 39.4761 33.1906 37.8781 32.1535C36.8571 31.4896 36.0325 30.5091 35.0497 29.768C30.8684 26.6182 26.3195 24.4025 20.9588 24.3639C19.5445 24.3964 18.1322 24.2381 16.7596 23.8929ZM65.5163 35.5118C65.4704 35.6971 65.478 35.8232 65.4219 35.8721C65.1947 36.0599 64.9496 36.2272 64.7097 36.3867C58.3764 40.8824 53.0897 46.4796 48.1171 52.4189C46.8853 53.8694 46.2586 55.7444 46.3685 57.6506C46.514 61.6188 46.5956 65.5895 46.685 69.5603C46.7131 70.901 46.685 72.2417 46.685 73.5825C46.685 73.8707 46.5956 74.2464 46.9122 74.3854C47.3308 74.5706 47.5299 74.1563 47.7188 73.899C48.4847 72.8696 49.2709 71.8403 49.9652 70.7595C51.8032 67.8979 53.9296 65.2215 56.661 63.2709C62.1263 59.3774 67.7423 55.6923 74.4968 54.3181C75.2192 54.1714 75.9135 53.8909 76.6334 53.7288C77.5217 53.5281 77.8791 53.0057 77.7259 52.1153C77.4707 50.7051 77.246 49.2846 76.9601 47.8821C75.6072 41.0163 75.1886 34.0089 73.6263 27.1612C72.4444 21.9372 71.6454 16.6334 69.7845 11.5819C69.4373 10.64 69.2305 9.62095 69.4628 8.65078C69.9734 6.48913 69.3275 4.42785 69.1029 2.3254C69.0187 1.53279 68.646 1.29604 67.8955 1.62286C66.1418 2.39488 64.3753 3.13087 62.619 3.89773C61.1257 4.5488 59.4945 5.08921 58.3534 6.23437C53.6641 10.9359 48.5127 15.2747 45.7533 21.5923C45.2427 22.7684 44.3314 23.893 44.5254 25.1951C44.9849 28.3089 44.796 31.4433 45.0666 34.5571C45.0965 35.3041 45.2699 36.0382 45.5771 36.7187C45.9753 37.5268 46.4272 37.6091 47.0117 36.904C47.8618 35.8746 48.7986 34.9148 49.5644 33.8159C52.8447 29.1118 56.9673 25.3418 61.8021 22.318C63.1117 21.4971 64.3549 20.5167 65.9375 20.2027C65.7238 20.4537 65.4743 20.6714 65.1972 20.8486C61.9604 23.3577 58.5832 25.7098 56.0458 29.0166C53.6054 32.1973 51.0808 35.3188 48.7476 38.5793C46.4144 41.8397 45.4291 45.6329 45.6231 49.686C45.6435 50.1158 45.5899 50.6948 46.0596 50.8698C46.5293 51.0448 46.685 50.4966 46.9403 50.2161C50.0497 46.7541 53.3749 43.4956 56.8958 40.4604C58.8818 38.7568 60.9674 37.1562 63.3108 35.957C63.9771 35.6302 64.679 35.257 65.5087 35.5118H65.5163Z" fill="#FC4525"/>
<path id="Vector_2" d="M39.0064 57.8772C37.8705 57.6405 37.1404 56.7861 36.2342 56.274C33.439 54.6913 30.6182 53.276 27.2538 53.5719C26.9321 53.6002 26.4548 53.6568 26.4114 53.2091C26.368 52.7613 26.8632 52.7227 27.1772 52.6944C31.864 52.3804 35.8564 53.8215 38.9835 57.4526C39.0294 57.5144 38.9962 57.643 39.0064 57.8772Z" fill="#FC4525"/>
</g>
<defs>
<clipPath id="clip0_133_113">
<rect width="81.6152" height="86.3603" fill="white" transform="translate(0.861328 0.0634155)"/>
</clipPath>
</defs>
</svg>
