<svg width="189" height="87" viewBox="0 0 189 87" fill="none" xmlns="http://www.w3.org/2000/svg">
<g id="Layer_2" clip-path="url(#clip0_133_118)">
<path id="Vector" d="M39.1939 8.20549C37.1758 8.20549 37.4782 6.81183 37.5356 5.60381C37.5956 4.33042 38.3387 3.86499 39.5459 3.9199C48.0251 4.2912 56.3557 2.50009 64.7932 2.21508C69.5151 2.05558 74.2319 1.70781 78.9565 1.59799C88.6611 1.37051 98.3632 0.944304 108.068 0.899853C113.585 0.873705 119.097 0.345524 124.614 0.0709737C125.318 0.0647786 126.022 0.111979 126.718 0.212171C127.845 0.32722 128.426 0.996599 128.497 2.10526C128.911 8.64216 131.002 14.8548 132.014 21.2793C132.796 26.1924 134.069 31.0245 135.054 35.9219C135.346 37.3601 135.988 38.0138 137.505 37.8987C140.264 37.6817 143.025 37.5117 145.789 37.4254C152.589 37.211 159.347 37.9327 166.126 38.2778C168.249 38.3877 168.473 39.0806 168.692 41.1933C169.104 45.1677 168.533 49.15 168.953 53.1088C169.172 55.13 169.289 55.2006 171.331 54.8188C175.286 54.0605 179.02 52.4655 182.996 51.7517C187.89 50.8731 189.296 52.1047 188.537 56.9812C188.305 58.469 187.836 59.9202 187.457 61.3819C187.111 62.7206 186.24 63.4135 184.85 63.4737C180.222 63.6985 175.638 64.5196 171.13 65.3772C163.287 66.8702 155.387 67.001 147.45 67.0533C145.103 67.0664 142.73 67.2965 140.368 67.3148C139.153 67.3278 139.2 68.1201 139.08 68.9281C138.321 73.9824 135.672 77.9281 131.662 80.9011C129.433 82.5536 126.625 82.8177 123.921 83.0478C122.223 83.1916 120.5 83.1079 118.789 83.0844C112.829 82.9981 106.535 78.9191 104.777 72.3822C104.397 70.965 103.807 70.4995 102.394 70.6826C91.922 72.0256 81.3706 72.6502 70.8136 72.5521C68.2062 72.5312 65.5988 72.8659 62.9732 72.7796C62.118 72.7535 61.6487 73.0699 61.5026 73.917C60.1729 81.6986 51.107 87.2523 42.5105 86.3084C38.1353 85.8299 34.2946 84.1146 30.7381 81.6358C28.5506 80.1114 27.9613 77.7137 27.6354 75.3055C27.4424 73.8909 26.8531 73.517 25.5703 73.6948C22.9316 74.0608 20.2904 74.3877 17.6465 74.7145C16.9032 74.8335 16.1516 74.8929 15.3989 74.8923C11.4696 74.7328 7.57677 75.3186 3.63962 75.2244C1.88746 75.1826 1.47028 74.7956 1.60847 73.0411C1.77274 71.0042 1.43639 69.0379 1.10264 67.0271C0.327958 62.2512 0.128367 57.3991 0.508159 52.5754C0.58638 51.5295 0.664601 50.4626 0.787148 49.4115C0.891444 48.5146 1.35556 48.0257 2.32811 47.8583C11.7825 46.2136 21.229 44.514 30.6782 42.8511C32.6572 42.5007 34.6388 42.1529 36.6282 41.8731C37.8015 41.7058 38.1014 41.0521 38.0206 39.9774C37.2696 30.1041 37.4991 20.2125 37.4991 10.3234C37.5095 8.73106 37.533 8.73106 39.1939 8.20549ZM107.849 3.15116C104.225 3.2113 100.96 3.20346 97.6801 3.39433C90.2021 3.831 82.7085 3.96435 75.2357 4.44024C72.3676 4.62066 69.4995 4.58405 66.6444 4.75662C59.7218 5.17237 52.7992 5.5672 45.8688 5.84698C42.2184 5.99341 42.2028 5.87574 42.1976 9.41874C42.1976 14.0599 42.2471 18.7011 42.2289 23.3423C42.2054 29.3406 41.8404 35.3389 42.2862 41.3397C42.333 41.7753 42.2225 42.2133 41.9747 42.5741C41.7268 42.9349 41.3582 43.1946 40.9356 43.306C40.3135 43.5087 39.6796 43.6729 39.0374 43.7976C31.1319 45.2593 23.2263 46.7183 15.4093 48.6192C12.8202 49.2468 10.218 49.8717 7.55852 50.0652C4.99546 50.2508 4.95114 50.1907 4.92767 52.8525C4.93417 52.9535 4.93417 53.0548 4.92767 53.1558C4.74776 54.4998 5.18841 55.028 6.60161 54.5887C8.01481 54.1494 9.58185 54.1468 11.0941 54.2436C13.3652 54.39 14.1734 55.2267 14.7966 58.0611C15.2399 60.0797 14.6793 61.2459 12.7446 62.2447C10.7604 63.2697 8.6119 63.5024 6.43474 63.3952C5.23013 63.3351 4.78426 63.8084 4.87031 64.9353C5.03197 67.2494 5.20666 69.5608 5.36571 71.8749C5.41786 72.6384 5.68903 73.0829 6.56511 73.0516C9.82955 72.9339 13.1018 72.9391 16.3636 72.7378C19.2683 72.5574 22.1312 71.8827 25.0567 71.8435C27.3407 71.8148 27.5102 71.8252 27.4476 69.5268C27.2703 62.9063 31.7263 59.0835 35.8982 55.0646C36.0947 54.9058 36.3169 54.782 36.5552 54.6985C39.8275 53.229 43.204 52.3113 46.8127 53.0643C49.2088 53.5637 51.7901 53.6631 53.8135 55.2241C58.5276 58.8612 61.9772 63.2802 61.998 69.6262C61.998 70.1988 61.972 70.7767 62.8246 70.7349C68.5608 70.4734 74.2971 70.3636 79.9968 69.8955C87.4044 69.2863 94.7859 68.3659 102.206 67.9109C104.316 67.7828 104.363 67.7567 104.59 65.7041C104.655 65.1053 104.775 64.5091 104.871 63.913C105.914 57.4911 109.226 52.8761 115.387 50.4469C118.093 49.3801 120.938 48.9722 123.762 48.5905C125.928 48.2976 128.265 48.1486 130.28 49.2389C134.64 51.5922 138.42 54.4684 139.177 59.9098C139.367 61.258 139.415 62.6226 139.32 63.9809C139.226 65.3223 139.771 65.7015 140.97 65.4609C143.252 65.0033 145.588 64.9693 147.883 64.9615C153.322 64.9432 158.716 64.4385 164.119 63.9522C165.008 63.8711 165.524 63.4632 165.511 62.5219C165.485 61.0603 165.561 59.5881 165.407 58.1396C165.013 54.39 164.971 54.3952 161.235 54.3403C159.303 54.3116 158.239 53.5428 157.699 51.6863C157.405 50.6692 157.22 49.6233 156.98 48.5905C156.503 46.5405 156.883 45.8528 158.941 45.2802C160.346 44.888 161.775 44.5899 163.191 44.2343C164.898 43.8055 164.234 42.4039 164.296 41.358C164.377 40.2598 163.668 40.0899 162.732 40.0507C160.171 39.9434 157.616 39.7238 155.056 39.5957C150.884 39.3839 146.748 38.9263 142.558 39.4153C139.721 39.7447 136.838 39.6767 133.975 39.7604C132.277 39.8075 131.107 38.9629 130.418 37.4385C130.079 36.7068 129.794 35.9508 129.566 35.1767C126.698 24.8641 124.844 14.3528 123.569 3.73164C123.472 2.93152 123.251 2.54977 122.372 2.61775C117.444 3.00473 112.472 3.21392 107.849 3.15116ZM58.3216 70.4159C58.392 66.7552 57.9696 63.7247 55.3962 61.2407C53.7326 59.6326 52.2047 57.8415 50.2831 56.5759C47.9364 55.0463 45.1804 53.8121 42.4844 55.2241C40.7818 56.1157 39.16 57.3656 37.5173 58.4716C34.2711 60.6524 32.532 63.6436 32.2035 67.4952C32.1044 68.6509 32.1748 69.8197 32.0601 70.9702C31.4239 77.379 32.9935 80.2186 38.7793 83.0242C39.04 83.155 39.3164 83.3014 39.5902 83.4295C41.9214 84.5494 44.5432 84.9112 47.0893 84.4645C49.6355 84.0177 51.979 82.7847 53.7926 80.9377C56.7833 77.9202 58.7779 74.4792 58.3216 70.4159ZM122.638 81.2959C122.758 81.2959 123.261 81.2723 123.759 81.207C126.489 80.8514 129.094 80.318 130.869 77.8366C135.993 70.6773 135.451 59.6509 129.696 53.433C127.256 50.7947 124.192 49.4612 120.583 50.5568C116.375 51.8354 113.869 54.9862 112.24 58.924C110.952 62.0408 110.748 65.3825 110.441 68.6901C109.836 75.1904 116.813 81.6437 122.638 81.2959ZM171.339 63.6018L181.875 62.1009C182.543 62.0068 182.756 61.578 182.837 60.953C183.061 59.1567 183.333 57.3682 183.588 55.5745C183.752 54.4031 183.275 54.0396 182.123 54.2671C178.238 55.0515 174.426 56.1942 170.444 56.4557C169.688 56.5027 169.571 57.0048 169.641 57.6245C169.821 59.2221 170.024 60.8197 170.181 62.4225C170.267 63.3246 170.744 63.6619 171.339 63.6018ZM4.94331 58.7906C4.94331 61.4577 5.33964 61.8081 7.74886 61.4342C8.34206 61.3408 8.92704 61.201 9.49841 61.0158C11.4983 60.3726 11.8451 59.6431 11.2167 57.6166C10.6431 55.8072 10.3458 55.632 8.505 56.0164C8.01481 56.121 7.52984 56.338 7.04226 56.338C5.15191 56.3458 4.60175 57.3264 4.94331 58.7906ZM164.403 49.3775H164.533C164.533 48.8232 164.559 48.2715 164.533 47.7197C164.494 47.0765 164.499 46.1718 163.522 46.5379C162.638 46.8699 161.024 46.347 161.118 48.1067C161.172 49.1526 161.454 50.1855 161.689 51.2131C161.84 51.8798 162.116 52.4603 163.008 52.2956C163.811 52.1465 164.473 51.9086 164.416 50.8941C164.38 50.3763 164.403 49.8743 164.403 49.3723V49.3775Z" fill="#0A50A3"/>
<path id="Vector_2" d="M72.2035 26.1849C72.3025 21.6953 72.2165 17.2136 71.6559 12.7502C71.3743 10.5068 72.1435 9.75633 74.3024 9.61252C77.9788 9.37981 81.6422 9.42164 85.3108 9.40857C90.8488 9.38765 96.3426 8.67905 101.865 8.38358C106.326 8.14302 110.821 8.36266 115.22 7.28277C115.788 7.14157 116.422 7.29846 117.024 7.28277C118.273 7.22786 118.933 7.89724 119.045 9.05296C119.22 10.8833 119.853 12.5698 120.573 14.2485C121.407 16.1886 121.178 18.3197 121.512 20.354C122.351 25.4867 123.72 30.4914 125.094 35.4908C125.754 37.8964 125.574 38.3409 123.191 38.9946C120.495 39.7319 117.715 39.8941 114.98 40.0405C106.796 40.4615 98.5954 40.587 90.416 41.0576C85.3342 41.3479 80.2603 41.3374 75.1837 41.3191C73.3351 41.3191 72.9961 41.0079 72.7719 39.1907C72.2691 34.8749 72.0791 30.5282 72.2035 26.1849ZM75.6348 24.148C75.4679 28.0387 75.8955 31.9007 76.2292 35.7706C76.6256 40.4981 76.2162 39.6457 80.169 39.5071C90.562 39.1462 100.932 38.3618 111.291 37.4283C113.061 37.2688 114.962 36.7354 116.672 37.8859C116.8 37.9722 117.194 37.933 117.22 37.8624C117.648 36.7197 118.719 36.9864 119.54 36.84C120.523 36.6648 120.795 36.1759 120.63 35.2712C120.523 34.6753 120.45 34.0738 120.411 33.4696C120.171 29.6547 118.573 26.1483 117.971 22.4118C117.413 18.9341 117.157 15.3911 115.47 12.1907C115.051 11.4062 115.509 10.2035 114.701 9.67789C113.893 9.15232 112.931 9.71972 112.06 9.84785C108.853 10.3211 105.625 9.89491 102.413 10.2191C97.0153 10.7682 91.618 11.3513 86.1842 11.3069C82.766 11.2781 79.3581 11.4795 75.945 11.5893C74.8578 11.6233 74.511 11.9449 74.7483 13.0248C75.5618 16.6854 75.7417 20.4062 75.6348 24.148Z" fill="#0A50A3"/>
<path id="Vector_3" d="M45.8975 32.3949C46.3564 26.3339 46.5858 19.8885 46.5832 13.4301C46.5832 11.4324 47.2846 10.7055 49.2714 10.5329C53.3676 10.1773 57.469 9.87924 61.573 9.60469C63.0931 9.5001 63.8832 10.3237 64.4125 11.7645C65.2912 14.1596 64.9626 16.6593 65.3303 19.0858C66.2324 25.0736 65.9821 31.1555 66.8321 37.1512C67.2389 40.0091 66.7044 40.4013 63.8467 41.0498C59.9669 41.9284 56.0845 42.6631 52.1135 42.9821C50.9062 43.0788 49.7042 43.0893 48.5022 43.1547C47.003 43.2383 46.3929 42.4565 46.3225 41.0812C46.1843 38.3174 46.0513 35.5483 45.8975 32.3949ZM49.8085 34.8267C49.9519 36.4138 50.244 38.1239 50.2127 39.8261C50.1892 41.1465 50.7159 41.3531 51.8084 41.2381C54.9069 40.9015 57.9781 40.3475 60.9994 39.5803C62.3188 39.2482 62.702 38.6991 62.6864 37.3002C62.6003 30.094 61.3618 22.9896 60.9394 15.8147C60.8743 14.7139 60.5927 13.6288 60.418 12.5332C60.3163 11.8874 59.9982 11.5684 59.2994 11.605C56.5903 11.7462 53.8787 11.8665 51.1696 11.9841C50.1605 12.0312 49.7955 12.528 49.8998 13.553C50.0823 15.3545 50.184 17.1692 50.2466 18.9812C50.4213 24.2395 49.7929 29.4638 49.7981 34.8397L49.8085 34.8267Z" fill="#0A50A3"/>
<path id="Vector_4" d="M37.3922 70.8606C37.3714 67.2549 39.4781 65.1369 43.1024 65.1291C44.6609 65.0937 46.2193 65.2066 47.7566 65.4664C49.3601 65.7723 50.3275 66.6613 50.6951 68.293C51.4773 71.7131 49.467 75.0469 46.0383 75.7502C44.7573 76.0118 43.448 76.1058 42.1429 76.03C38.9462 75.8444 37.4131 74.103 37.3922 70.8606ZM41.5171 70.0239C41.538 72.2674 42.3254 73.8232 43.4335 73.8127C45.2274 73.797 46.8883 71.8778 46.8231 69.8906C46.7788 68.3557 45.2718 67.1059 43.4753 67.1111C42.4062 67.1137 41.5015 68.4577 41.5223 70.0239H41.5171Z" fill="#0A50A3"/>
<path id="Vector_5" d="M121.924 73.4231H121.019C117.502 73.4231 115.371 71.7915 115.126 68.931C114.8 65.1343 116.915 62.1849 120.362 61.6541C122.325 61.3508 124.273 61.5443 126.197 61.9496C128.327 62.3993 130.108 64.716 130.369 67.166C130.63 69.4408 129.649 71.1326 127.425 72.27C125.48 73.2767 124.972 73.3813 121.924 73.4231ZM118.993 67.77C118.912 69.8331 120.091 71.4307 121.71 71.4516C123.897 71.4804 126.226 69.6526 126.257 67.8824C126.296 65.6599 124.171 63.8453 121.658 63.623C119.989 63.474 119.178 65.137 118.993 67.77Z" fill="#0A50A3"/>
</g>
<defs>
<clipPath id="clip0_133_118">
<rect width="188.422" height="86.3603" fill="white" transform="translate(0.325684 0.0634155)"/>
</clipPath>
</defs>
</svg>
