<svg width="25" height="24" viewBox="0 0 25 24" fill="none" xmlns="http://www.w3.org/2000/svg">
<g id="maki:playground">
<path id="Vector" d="M5.30032 1.84C5.46094 1.22406 5.85966 0.697154 6.40876 0.375191C6.68065 0.215772 6.98128 0.111466 7.29348 0.0682291C7.60568 0.0249923 7.92334 0.0436715 8.22832 0.1232C8.53331 0.202729 8.81964 0.341549 9.07097 0.531735C9.3223 0.721922 9.53371 0.959749 9.69313 1.23164C9.85255 1.50353 9.95686 1.80416 10.0001 2.11636C10.0433 2.42856 10.0247 2.74622 9.94512 3.0512C9.78451 3.66714 9.38579 4.19405 8.83668 4.51601C8.28758 4.83797 7.63306 4.92862 7.01712 4.768C6.40118 4.60739 5.87428 4.20867 5.55232 3.65956C5.23035 3.11045 5.13971 2.45594 5.30032 1.84ZM22.9003 19.712C22.9398 19.9186 22.9381 20.1309 22.8954 20.3368C22.8527 20.5427 22.7699 20.7381 22.6516 20.912C22.5333 21.0859 22.3819 21.2347 22.206 21.35C22.0302 21.4653 21.8333 21.5448 21.6267 21.584H21.6203C21.2887 21.6511 20.9444 21.6114 20.6368 21.4705C20.3292 21.3296 20.0741 21.0949 19.9083 20.8L17.2203 15.408L14.9003 15.872L14.5483 16H14.4523V19.44L15.4443 19.2H15.6683C15.8593 19.2036 16.0433 19.2728 16.1893 19.396C16.3352 19.5192 16.4344 19.6889 16.4701 19.8766C16.5057 20.0642 16.4757 20.2584 16.3851 20.4266C16.2944 20.5948 16.1487 20.7266 15.9723 20.8L7.97232 22.4C7.8823 22.4152 7.79035 22.4152 7.70032 22.4C7.50799 22.4 7.32159 22.3334 7.17285 22.2114C7.0241 22.0895 6.9222 21.9198 6.88448 21.7312C6.84676 21.5426 6.87555 21.3467 6.96595 21.177C7.05635 21.0072 7.20278 20.874 7.38032 20.8L14.0203 19.472V16L8.86832 16.928C8.46755 17.0325 8.04188 16.9775 7.68083 16.7746C7.31977 16.5717 7.05146 16.2367 6.93232 15.84H6.90032L5.30032 9.328C5.25043 9.10138 5.25043 8.86662 5.30032 8.64C5.3736 8.33704 5.53378 8.06209 5.76117 7.8489C5.98856 7.63572 6.27327 7.4936 6.58032 7.44L14.1003 6.608V0H14.4523V6.56H14.5483L14.9003 6.528L15.5403 6.4H15.8763C16.0818 6.44939 16.2594 6.57807 16.3703 6.75793C16.4812 6.93779 16.5164 7.15424 16.4683 7.36C16.4343 7.54211 16.3369 7.7063 16.1934 7.82345C16.0499 7.9406 15.8696 8.00315 15.6843 8L14.9003 8.128H14.4523V12.704H14.5483L14.9003 12.608L17.7963 12.032C18.1299 12.0045 18.4637 12.0824 18.7507 12.2546C19.0378 12.4268 19.2636 12.6847 19.3963 12.992L22.5963 19.296C22.7195 19.4173 22.8222 19.5578 22.9003 19.712ZM14.1003 8.208L10.1003 8.64L11.2843 13.344L14.1003 12.8V8.208Z" fill="black" fill-opacity="0.4"/>
</g>
</svg>
