<svg width="25" height="24" viewBox="0 0 25 24" fill="none" xmlns="http://www.w3.org/2000/svg">
<g id="material-symbols-light:toys-and-games-outline">
<path id="Vector" d="M4.92969 18.085C4.92969 17.8697 4.98202 17.7087 5.08669 17.602C5.19069 17.4953 5.31002 17.442 5.44469 17.442C5.51402 17.442 5.58869 17.4533 5.66869 17.476C5.74869 17.4987 5.82169 17.532 5.88769 17.576C6.04035 17.646 6.20235 17.702 6.37369 17.744C6.54569 17.7867 6.73102 17.808 6.92969 17.808C7.69769 17.808 8.35102 17.532 8.88969 16.98C9.42969 16.428 9.69969 15.768 9.69969 15C9.69969 14.232 9.42969 13.585 8.88969 13.059C8.35102 12.5323 7.69769 12.269 6.92969 12.269C6.76969 12.269 6.61135 12.285 6.45469 12.317C6.29802 12.349 6.14735 12.3973 6.00269 12.462C5.87735 12.5067 5.77035 12.5337 5.68169 12.543C5.59302 12.5523 5.51402 12.5573 5.44469 12.558C5.31002 12.558 5.19069 12.5013 5.08669 12.388C4.98202 12.276 4.92969 12.1313 4.92969 11.954L4.92969 9.769C4.92969 9.54967 5.00302 9.36667 5.14969 9.22C5.29635 9.07333 5.47969 9 5.69969 9H10.0647C10.2054 9 10.2787 8.94867 10.2847 8.846C10.2914 8.74333 10.2437 8.64067 10.1417 8.538C9.92969 8.288 9.75802 8.006 9.62669 7.692C9.49535 7.37867 9.42969 6.98133 9.42969 6.5C9.42969 5.51933 9.76769 4.69067 10.4437 4.014C11.121 3.338 11.9497 3 12.9297 3C13.9104 3 14.739 3.338 15.4157 4.014C16.0917 4.69133 16.4297 5.52 16.4297 6.5C16.4297 6.98067 16.364 7.378 16.2327 7.692C16.1014 8.006 15.9297 8.288 15.7177 8.538C15.6157 8.64067 15.5677 8.74333 15.5737 8.846C15.5804 8.94867 15.654 9 15.7947 9H20.1607C20.38 9 20.563 9.07333 20.7097 9.22C20.8564 9.36667 20.9297 9.55 20.9297 9.77V11.53C20.9297 11.75 20.885 11.978 20.7957 12.214C20.707 12.4507 20.5724 12.569 20.3917 12.569C20.245 12.569 20.1284 12.5623 20.0417 12.549C19.9544 12.5357 19.867 12.5067 19.7797 12.462C19.673 12.3973 19.5577 12.349 19.4337 12.317C19.309 12.285 19.141 12.269 18.9297 12.269C18.1617 12.269 17.5084 12.5323 16.9697 13.059C16.4297 13.5857 16.1597 14.2327 16.1597 15C16.1597 15.7673 16.4297 16.4273 16.9697 16.98C17.5084 17.532 18.1617 17.808 18.9297 17.808C19.141 17.808 19.325 17.7887 19.4817 17.75C19.6384 17.7113 19.789 17.6537 19.9337 17.577C20.017 17.5323 20.0904 17.4967 20.1537 17.47C20.217 17.4433 20.2964 17.43 20.3917 17.43C20.5337 17.43 20.6587 17.4877 20.7667 17.603C20.8747 17.7183 20.929 17.879 20.9297 18.085V20.231C20.9297 20.4503 20.8564 20.6333 20.7097 20.78C20.563 20.9267 20.3797 21 20.1597 21H5.69969C5.47969 21 5.29635 20.9267 5.14969 20.78C5.00302 20.6333 4.92969 20.45 4.92969 20.23V18.085ZM5.92969 20H19.9297V18.658C19.7764 18.708 19.617 18.7453 19.4517 18.77C19.287 18.7953 19.113 18.808 18.9297 18.808C17.881 18.808 16.9907 18.4353 16.2587 17.69C15.526 16.9453 15.1597 16.0487 15.1597 15C15.1597 13.9513 15.5257 13.0673 16.2577 12.348C16.9904 11.6293 17.881 11.27 18.9297 11.27C19.113 11.27 19.287 11.2827 19.4517 11.308C19.6164 11.3327 19.7757 11.37 19.9297 11.42V10H15.3797C15.0964 10 14.859 9.91167 14.6677 9.735C14.4757 9.55767 14.3797 9.32933 14.3797 9.05C14.3797 8.90333 14.41 8.75633 14.4707 8.609C14.532 8.461 14.6144 8.34533 14.7177 8.262C15.001 8.062 15.1907 7.80567 15.2867 7.493C15.382 7.181 15.4297 6.85 15.4297 6.5C15.4297 5.8 15.188 5.20833 14.7047 4.725C14.2214 4.24167 13.6297 4 12.9297 4C12.2297 4 11.638 4.24167 11.1547 4.725C10.6714 5.20833 10.4297 5.8 10.4297 6.5C10.4297 6.85 10.4774 7.181 10.5727 7.493C10.668 7.805 10.8577 8.06133 11.1417 8.262C11.2324 8.31933 11.3114 8.42333 11.3787 8.574C11.446 8.72467 11.4797 8.86667 11.4797 9C11.4797 9.28333 11.3837 9.521 11.1917 9.713C10.9997 9.905 10.7624 10.0007 10.4797 10H5.92969V11.42C6.08302 11.3693 6.24235 11.3317 6.40769 11.307C6.57235 11.2817 6.74635 11.269 6.92969 11.269C7.97835 11.269 8.86869 11.629 9.60069 12.349C10.3327 13.069 10.699 13.9527 10.6997 15C10.6997 16.0487 10.3337 16.9453 9.60169 17.69C8.86902 18.4353 7.97835 18.808 6.92969 18.808C6.74635 18.808 6.57235 18.7953 6.40769 18.77C6.24302 18.7453 6.08369 18.708 5.92969 18.658V20Z" fill="black" fill-opacity="0.4"/>
</g>
</svg>
