<svg width="41" height="37" viewBox="0 0 41 37" fill="none" xmlns="http://www.w3.org/2000/svg">
<g id="OBJECTS" clip-path="url(#clip0_469_3094)">
<path id="Vector" d="M24.8421 2.2272C24.9291 0.389817 22.8512 -0.203879 21.7047 1.04493C16.245 7.01025 11.2134 13.3537 6.64737 20.0278C4.61038 22.9963 -0.748234 29.5628 1.35529 33.5088C1.412 33.6289 1.5026 33.7298 1.61594 33.799C1.72928 33.8683 1.8604 33.9029 1.99314 33.8985C2.12589 33.8942 2.25446 33.8511 2.36302 33.7746C2.47158 33.698 2.55538 33.5914 2.6041 33.4679C4.59394 29.0213 7.00896 24.7774 9.81545 20.7955C10.665 21.1231 11.5198 21.4404 12.3745 21.7168C14.0379 22.2286 15.9162 23.1294 17.7177 23.3239C16.7863 27.2392 15.8599 31.3848 16.4485 35.1926C16.7402 37.0556 19.248 36.7281 19.5654 35.0698C21.587 24.3731 24.448 13.1031 24.8421 2.2272ZM13.6694 19.3574C13.1217 19.2396 12.2209 18.9326 11.2946 18.7227C14.2941 14.6658 17.5023 10.7674 20.9063 7.0433C20.3945 11.1889 19.5193 15.2936 18.6595 19.3932C18.5827 19.7463 18.4957 20.1097 18.4138 20.4731C17.0114 19.777 15.0103 19.6542 13.6694 19.3574Z" fill="#31BBA1"/>
<path id="Vector_2" d="M40.3854 21.7373C39.418 20.7751 38.2358 20.3503 36.9614 19.946C37.6589 18.4985 38.1746 16.9702 38.4968 15.3961C38.7169 13.9169 36.5519 13.1032 35.7433 14.3724C34.9121 15.803 34.3175 17.3584 33.9827 18.9787L29.6374 17.4433C27.8359 16.8189 26.8327 19.4905 28.6138 20.2121L33.2201 22.0854C32.8413 23.8101 32.5906 25.6373 33.0563 27.316C33.2713 28.0889 34.4996 28.4215 34.776 27.4798C35.1905 26.0723 35.4669 24.6342 35.8354 23.2165C36.973 23.783 38.2291 24.0707 39.4999 24.0558C39.7483 24.016 39.9817 23.9115 40.1769 23.7529C40.3721 23.5943 40.522 23.3871 40.6118 23.1521C40.7015 22.9172 40.7278 22.6627 40.6881 22.4144C40.6483 22.1661 40.5439 21.9325 40.3854 21.7373Z" fill="#31BBA1"/>
</g>
<defs>
<clipPath id="clip0_469_3094">
<rect width="39.839" height="36.0568" fill="white" transform="translate(0.874023 0.389893)"/>
</clipPath>
</defs>
</svg>
