<svg width="45" height="47" viewBox="0 0 45 47" fill="none" xmlns="http://www.w3.org/2000/svg">
<g id="OBJECTS" clip-path="url(#clip0_469_3084)">
<path id="Vector" d="M15.4716 26.0538C15.3705 25.9411 15.2369 25.8627 15.0892 25.8295C15.0488 22.8117 14.7727 19.8017 14.2634 16.8269C15.8947 16.6383 17.9694 15.6646 16.588 13.8498C14.9618 11.7088 11.0824 12.4276 8.94137 13.1056C7.89634 13.4369 4.20049 14.8082 5.44943 16.5516C6.46898 17.9688 7.71792 16.5873 7.7536 19.0546C7.79438 22.1132 7.7536 25.1311 7.81987 28.1693C6.10704 34.0011 0.86658 38.431 0.499544 44.6961C0.47249 44.8589 0.499145 45.026 0.57548 45.1722C0.651815 45.3184 0.77368 45.4358 0.922655 45.5067C4.54204 46.7454 8.72217 46.618 12.4996 46.5721C16.1496 46.5313 21.3339 46.6384 24.4079 44.2934C29.4495 40.4497 17.791 28.7097 15.4716 26.0538ZM22.4198 43.6766C20.2277 44.6961 17.4953 44.7777 15.13 44.9561C12.1892 45.1728 9.23645 45.1728 6.29565 44.9561C5.31689 44.8848 4.34832 44.7624 3.38485 44.6146C1.42223 44.3087 2.07474 43.2382 2.67117 41.5203C3.36446 39.4812 4.77143 37.5593 6.03567 35.5712C5.31179 37.4217 10.6542 37.7428 11.4495 37.7428C13.9983 37.7428 17.8777 36.9374 18.8462 34.1184C19.616 31.8805 16.5982 31.6001 15.1504 31.6715C13.5701 31.7479 8.86491 32.2934 8.48258 34.2815C8.4511 34.449 8.48698 34.6222 8.58242 34.7635C8.67786 34.9047 8.82516 35.0026 8.99235 35.036C10.2107 35.1532 11.893 34.0164 13.1368 33.7768C13.7587 33.6494 17.1283 33.527 17.1232 33.5423C16.4809 35.4897 13.4478 36.0045 11.7757 36.188C10.6456 36.3096 9.5046 36.2857 8.38062 36.1167C7.63635 35.9739 7.03992 35.4132 6.32114 35.301C6.27617 35.2881 6.22848 35.2881 6.1835 35.301C7.39676 33.3741 8.45199 31.4115 8.55394 29.2959C8.62442 29.2683 8.68595 29.2218 8.73181 29.1616C8.77766 29.1014 8.80607 29.0297 8.81393 28.9544C9.3237 24.8762 9.14018 20.798 9.07391 16.7198C9.06033 16.5711 8.998 16.431 8.8966 16.3213C8.7952 16.2116 8.6604 16.1384 8.51316 16.1132C5.25062 15.7819 8.75276 14.691 10.0884 14.2729C11.3111 13.9119 12.6016 13.8438 13.8556 14.0741C14.7936 14.0333 15.1708 14.4514 15.0026 15.3231C14.4928 15.4454 13.9575 15.5831 13.4427 15.7309C13.3567 15.7616 13.28 15.8136 13.2196 15.882C13.1592 15.9505 13.1171 16.033 13.0973 16.1221C13.0774 16.2112 13.0805 16.3038 13.1061 16.3914C13.1317 16.479 13.1791 16.5587 13.2438 16.623C13.1998 16.708 13.1771 16.8025 13.1776 16.8983C13.2235 20.3188 12.9737 24.1166 13.723 27.4658C13.8556 28.0572 14.7732 28.3019 15.0128 27.7717C17.3628 30.7845 19.8709 33.6494 21.9406 36.9068C23.0926 38.7318 25.3051 42.3614 22.4198 43.6766Z" fill="#CA4345"/>
<path id="Vector_2" d="M12.8822 14.1964C12.6615 14.1258 12.4281 14.1044 12.1983 14.1334C11.9685 14.1625 11.7478 14.2414 11.5517 14.3646C11.4143 14.4254 11.273 14.4765 11.1285 14.5175H11.0572H10.9909C10.7804 14.4831 10.5648 14.532 10.3897 14.6538C10.2146 14.7756 10.0938 14.9607 10.0529 15.1701C10.0136 15.3827 10.0587 15.6022 10.1786 15.7821C10.2985 15.962 10.4839 16.0881 10.6952 16.1335C11.0762 16.2185 11.4724 16.2063 11.8473 16.0978C12.3979 15.9704 13.0402 15.8532 13.29 15.272C13.3779 15.0752 13.3844 14.8516 13.308 14.6501C13.2316 14.4485 13.0785 14.2854 12.8822 14.1964Z" fill="#CA4345"/>
<path id="Vector_3" d="M8.19688 9.02223C8.11239 8.99316 8.02099 8.99092 7.93518 9.01581C7.84937 9.0407 7.77335 9.09151 7.71754 9.16128C7.66172 9.23105 7.62884 9.31636 7.62339 9.40554C7.61795 9.49472 7.6402 9.58341 7.68711 9.65945L7.71769 9.70023C7.4183 9.81252 7.14569 9.98616 6.91735 10.21C6.72955 10.4496 6.59323 10.7254 6.51692 11.0202C6.44061 11.3149 6.42594 11.6222 6.47385 11.9228C6.48939 12.0816 6.56629 12.2279 6.68818 12.3308C6.81006 12.4336 6.96729 12.4848 7.12636 12.4734C8.02865 12.3816 9.2725 12.1981 9.58346 11.1888C9.85364 10.2916 8.92075 9.34849 8.19688 9.02223ZM7.63613 11.1633C7.63706 11.009 7.68313 10.8584 7.76867 10.73C7.8825 10.5688 8.00503 10.4139 8.13571 10.2661C8.19178 10.3323 8.25295 10.3986 8.30393 10.47C8.39614 10.5792 8.45145 10.7148 8.46196 10.8574C8.3792 10.9259 8.284 10.9779 8.18158 11.0103C8.005 11.0784 7.82237 11.1296 7.63613 11.1633Z" fill="#CA4345"/>
<path id="Vector_4" d="M15.1962 5.66286C13.6362 4.75037 11.9234 5.69345 11.3117 7.19218C11.2348 7.27418 11.1633 7.36102 11.0976 7.45216C10.8759 7.78275 10.741 8.16385 10.7053 8.56031C10.6697 8.95677 10.7345 9.35582 10.8937 9.72065C11.9132 11.6884 14.9209 10.9288 16.1698 9.64928C17.4188 8.36975 16.5521 6.45811 15.1962 5.66286ZM15.1146 8.50229C14.6711 9.18539 12.8155 9.92456 12.2242 9.13951C11.6328 8.35446 12.8053 7.1361 13.4884 6.88122C13.5398 6.86097 13.5851 6.82781 13.6199 6.78495C13.6547 6.74208 13.6779 6.69096 13.6872 6.63653C13.9519 6.63478 14.2123 6.70339 14.4417 6.83534C15.033 7.15649 15.4408 8.00271 15.1146 8.50229Z" fill="#CA4345"/>
<path id="Vector_5" d="M10.241 0.565269C10.1668 0.505863 10.0786 0.46666 9.98477 0.451474C9.89097 0.436288 9.79484 0.445636 9.70573 0.478608C9.51783 0.544814 9.34662 0.651167 9.204 0.790265C9.06138 0.929362 8.95078 1.09786 8.8799 1.28405C8.79324 1.56952 8.73716 1.85499 8.6556 2.14556C8.63322 2.21591 8.63141 2.29119 8.65037 2.36254C8.66934 2.43389 8.70829 2.49833 8.76265 2.54828C8.67825 2.74834 8.63477 2.96327 8.63477 3.1804C8.63477 3.39753 8.67825 3.61246 8.76265 3.81252C8.92894 4.13218 9.21037 4.37681 9.55007 4.49699C9.88977 4.61716 10.2624 4.60392 10.5927 4.45993C10.9321 4.34819 11.2317 4.14035 11.4552 3.86164C11.6787 3.58293 11.8165 3.24534 11.8519 2.88983C11.9181 1.76833 11.0872 1.14131 10.241 0.565269ZM10.399 2.60436C10.4014 2.6383 10.4014 2.67237 10.399 2.70631C10.4018 2.73002 10.4018 2.75397 10.399 2.77768V2.78788C10.3834 2.82836 10.3647 2.86756 10.3429 2.90512L10.2563 3.01218L10.0932 3.11413L9.9861 3.15491V3.12433C9.9861 3.05806 9.9861 2.98669 10.0218 2.92042C10.0788 2.66593 10.1626 2.41818 10.2716 2.18125C10.3269 2.29699 10.3696 2.41833 10.399 2.54319V2.57887V2.60436Z" fill="#CA4345"/>
<path id="Vector_6" d="M41.2509 8.46673C42.612 6.93741 43.8813 5.10733 43.1472 3.26195C42.1022 0.636628 37.713 1.8142 35.9135 2.64003C35.807 2.69281 35.7222 2.78116 35.674 2.88982C33.7827 0.687605 31.4632 -0.892689 29.6281 1.25855C29.5431 1.34287 29.4854 1.45083 29.4626 1.56836C29.4398 1.68589 29.4529 1.80756 29.5002 1.91755C29.5475 2.02754 29.6268 2.12074 29.7278 2.18505C29.8288 2.24935 29.9468 2.28177 30.0665 2.27809C28.5371 2.53298 27.854 4.10308 27.8031 6.21354C24.8821 6.46332 22.063 7.33503 20.3808 9.4149C20.182 9.11924 19.611 9.2008 19.6569 9.61372C19.9373 11.9179 21.5023 13.3401 23.4955 14.2424C22.1089 16.6894 22.0477 18.8304 24.5507 19.8092C26.9314 20.7471 29.6484 18.7896 31.4785 17.5356L31.7079 17.3724C33.5074 19.6205 35.7861 20.9409 38.2687 20.1915C40.4607 19.5033 41.1081 17.6426 41.0266 15.5169C41.6022 15.3552 42.1379 15.0755 42.5996 14.6954C43.0612 14.3154 43.4387 13.8434 43.708 13.3096C44.6867 11.1124 43.2798 9.54745 41.2509 8.46673ZM40.8787 3.32823C42.9943 3.75643 40.7054 6.63155 39.7317 7.77344C39.3596 7.6307 38.9824 7.49816 38.6051 7.37582C37.976 6.15231 37.2498 4.98118 36.4335 3.87368L36.9433 3.6137C38.2228 3.32313 39.5023 3.04785 40.8787 3.32823ZM32.911 14.4158H32.6357H31.6722C30.7669 12.8938 30.0675 11.2585 29.5924 9.55254C29.8982 9.28236 30.1786 9.04277 30.4284 8.79808C30.7597 8.48202 31.1115 8.15577 31.4479 7.82442H31.7538C33.9269 8.01188 36.0765 8.4114 38.1718 9.01728C38.2177 9.13453 38.2585 9.25688 38.3044 9.37412C37.2135 10.5415 36.0716 11.663 34.9144 12.759C34.7105 12.9425 33.9458 13.6052 32.911 14.4158ZM29.8014 14.2985C28.3642 14.2144 26.9386 13.9908 25.5448 13.6307C26.4118 12.529 27.3739 11.5056 28.4199 10.5721C28.7629 11.8547 29.2255 13.1023 29.8014 14.2985ZM33.1557 6.2849C33.919 5.63281 34.7153 5.02028 35.5414 4.44972C36.1803 5.24618 36.7451 6.09934 37.2288 6.99858C36.3567 6.78103 35.4735 6.61086 34.583 6.48881C34.1446 6.39196 33.6349 6.35627 33.1557 6.2849ZM30.8056 2.85414C31.1217 2.7063 30.9433 2.24751 30.6323 2.23221C30.4618 2.22779 30.2913 2.23802 30.1225 2.2628C30.1919 2.25157 30.2591 2.22919 30.3213 2.19653C31.7742 1.42677 33.38 2.19653 34.8685 3.72585C33.5997 4.45901 32.3804 5.2747 31.2185 6.16766C30.5253 6.13707 29.8167 6.12178 29.103 6.16766C29.1744 4.60266 29.6739 3.3945 30.8056 2.85414ZM20.9823 10.674C21.0795 10.6799 21.1767 10.6621 21.2655 10.6222C21.3543 10.5822 21.432 10.5213 21.4921 10.4446C22.9449 8.64515 25.4326 8.03342 27.8897 7.84481C27.9254 8.17106 27.9917 8.51261 28.0478 8.86435C26.6164 10.1675 25.3248 11.6163 24.1939 13.1872C22.8797 12.719 21.7528 11.8371 20.9823 10.674ZM24.0817 17.2348C24.089 16.3547 24.3395 15.4937 24.8056 14.7471C26.7035 15.3121 28.6572 15.6694 30.6323 15.8125L30.7597 16.0114C27.7368 18.1218 24.1837 19.9723 24.0817 17.2348ZM37.4683 18.7182C36.0665 19.1312 34.476 18.0861 33.0588 16.3682L33.4564 16.0572C35.4667 16.2499 37.4927 16.2037 39.4921 15.9196C39.2984 17.3164 38.6765 18.3665 37.4683 18.7182ZM35.261 14.5126C36.5202 13.3758 37.7232 12.183 38.8906 10.9442C39.2361 12.0321 39.4567 13.1557 39.5482 14.2934C38.1313 14.521 36.6938 14.5945 35.261 14.5126ZM41.9492 13.1362C41.6496 13.4745 41.2764 13.7396 40.8583 13.9111C40.6083 12.5953 40.238 11.3053 39.7521 10.0572L40.109 9.68508C42.0053 10.5262 43.1421 11.663 41.9492 13.1413V13.1362Z" fill="#FCAE45"/>
<path id="Vector_7" d="M33.2322 10.8727L33.1914 10.8116C33.145 10.5584 33.03 10.3228 32.8589 10.1304C32.6878 9.93805 32.4673 9.79631 32.2213 9.7206C31.9752 9.6449 31.7132 9.63815 31.4635 9.70107C31.2139 9.764 30.9864 9.8942 30.8057 10.0775C30.6335 10.2574 30.5096 10.4779 30.4454 10.7186C30.3813 10.9592 30.3789 11.2121 30.4386 11.4539C30.5318 11.915 30.7693 12.3345 31.1166 12.6518C31.3804 12.9093 31.7344 13.0535 32.103 13.0535C32.4716 13.0535 32.8257 12.9093 33.0894 12.6518C33.3189 12.4196 33.459 12.1138 33.4851 11.7883C33.5112 11.4629 33.4216 11.1386 33.2322 10.8727Z" fill="#FCAE45"/>
</g>
<defs>
<clipPath id="clip0_469_3084">
<rect width="43.5294" height="46.3587" fill="white" transform="translate(0.499512 0.238892)"/>
</clipPath>
</defs>
</svg>
